<svg xmlns="http://www.w3.org/2000/svg" viewBox="0 0 680 360" role="img">
<title>Turn x travel by duration</title>
<rect width="100%" height="100%" fill="#ffffff"/>
<text x="52" y="19" font-family="system-ui, sans-serif" font-size="15" font-weight="700" fill="#111827">x travel by act duration</text>
<line x1="52" y1="314.0" x2="662" y2="314.0" stroke="#e5e7eb"/>
<text x="10" y="318.0" font-family="system-ui, sans-serif" font-size="10" fill="#6b7280">0.0</text>
<line x1="52" y1="242.5" x2="662" y2="242.5" stroke="#e5e7eb"/>
<text x="10" y="246.5" font-family="system-ui, sans-serif" font-size="10" fill="#6b7280">1.1</text>
<line x1="52" y1="171.0" x2="662" y2="171.0" stroke="#e5e7eb"/>
<text x="10" y="175.0" font-family="system-ui, sans-serif" font-size="10" fill="#6b7280">2.2</text>
<line x1="52" y1="99.5" x2="662" y2="99.5" stroke="#e5e7eb"/>
<text x="10" y="103.5" font-family="system-ui, sans-serif" font-size="10" fill="#6b7280">3.4</text>
<line x1="52" y1="28.0" x2="662" y2="28.0" stroke="#e5e7eb"/>
<text x="10" y="32.0" font-family="system-ui, sans-serif" font-size="10" fill="#6b7280">4.5</text>
<line x1="52.0" y1="28" x2="52.0" y2="314" stroke="#eef2f7"/>
<text x="40.0" y="340" font-family="system-ui, sans-serif" font-size="10" fill="#6b7280">150</text>
<line x1="204.5" y1="28" x2="204.5" y2="314" stroke="#eef2f7"/>
<text x="192.5" y="340" font-family="system-ui, sans-serif" font-size="10" fill="#6b7280">200</text>
<line x1="357.0" y1="28" x2="357.0" y2="314" stroke="#eef2f7"/>
<text x="345.0" y="340" font-family="system-ui, sans-serif" font-size="10" fill="#6b7280">250</text>
<line x1="509.5" y1="28" x2="509.5" y2="314" stroke="#eef2f7"/>
<text x="497.5" y="340" font-family="system-ui, sans-serif" font-size="10" fill="#6b7280">300</text>
<line x1="662.0" y1="28" x2="662.0" y2="314" stroke="#eef2f7"/>
<text x="650.0" y="340" font-family="system-ui, sans-serif" font-size="10" fill="#6b7280">350</text>
<line x1="52" y1="314" x2="662" y2="314" stroke="#6b7280"/>
<line x1="52" y1="28" x2="52" y2="314" stroke="#6b7280"/>
<polyline points="52.0,61.4 128.2,272.3 204.5,252.1 280.8,223.6 357.0,227.4 433.2,194.4 509.5,165.6 585.8,201.1 662.0,169.5" fill="none" stroke="#2563eb" stroke-width="2.2" stroke-linejoin="round" stroke-linecap="round"/>
<circle cx="52.0" cy="61.4" r="2.4" fill="#2563eb" opacity="0.78"/>
<circle cx="128.2" cy="272.3" r="2.4" fill="#2563eb" opacity="0.78"/>
<circle cx="204.5" cy="252.1" r="2.4" fill="#2563eb" opacity="0.78"/>
<circle cx="280.8" cy="223.6" r="2.4" fill="#2563eb" opacity="0.78"/>
<circle cx="357.0" cy="227.4" r="2.4" fill="#2563eb" opacity="0.78"/>
<circle cx="433.2" cy="194.4" r="2.4" fill="#2563eb" opacity="0.78"/>
<circle cx="509.5" cy="165.6" r="2.4" fill="#2563eb" opacity="0.78"/>
<circle cx="585.8" cy="201.1" r="2.4" fill="#2563eb" opacity="0.78"/>
<circle cx="662.0" cy="169.5" r="2.4" fill="#2563eb" opacity="0.78"/>
<circle cx="430" cy="18" r="4" fill="#2563eb"/>
<text x="440" y="22" font-family="system-ui, sans-serif" font-size="11" fill="#111827">forward+left</text>
<polyline points="52.0,143.2 128.2,289.2 204.5,280.0 280.8,295.4 357.0,297.0 433.2,307.1 509.5,293.1 585.8,274.0 662.0,297.2" fill="none" stroke="#dc2626" stroke-width="2.2" stroke-linejoin="round" stroke-linecap="round"/>
<circle cx="52.0" cy="143.2" r="2.4" fill="#dc2626" opacity="0.78"/>
<circle cx="128.2" cy="289.2" r="2.4" fill="#dc2626" opacity="0.78"/>
<circle cx="204.5" cy="280.0" r="2.4" fill="#dc2626" opacity="0.78"/>
<circle cx="280.8" cy="295.4" r="2.4" fill="#dc2626" opacity="0.78"/>
<circle cx="357.0" cy="297.0" r="2.4" fill="#dc2626" opacity="0.78"/>
<circle cx="433.2" cy="307.1" r="2.4" fill="#dc2626" opacity="0.78"/>
<circle cx="509.5" cy="293.1" r="2.4" fill="#dc2626" opacity="0.78"/>
<circle cx="585.8" cy="274.0" r="2.4" fill="#dc2626" opacity="0.78"/>
<circle cx="662.0" cy="297.2" r="2.4" fill="#dc2626" opacity="0.78"/>
<circle cx="430" cy="36" r="4" fill="#dc2626"/>
<text x="440" y="40" font-family="system-ui, sans-serif" font-size="11" fill="#111827">back+right</text>
<polyline points="52.0,196.3 128.2,265.9 204.5,251.9 280.8,245.0 357.0,254.8 433.2,255.0 509.5,291.6 585.8,218.7 662.0,260.9" fill="none" stroke="#16a34a" stroke-width="2.2" stroke-linejoin="round" stroke-linecap="round"/>
<circle cx="52.0" cy="196.3" r="2.4" fill="#16a34a" opacity="0.78"/>
<circle cx="128.2" cy="265.9" r="2.4" fill="#16a34a" opacity="0.78"/>
<circle cx="204.5" cy="251.9" r="2.4" fill="#16a34a" opacity="0.78"/>
<circle cx="280.8" cy="245.0" r="2.4" fill="#16a34a" opacity="0.78"/>
<circle cx="357.0" cy="254.8" r="2.4" fill="#16a34a" opacity="0.78"/>
<circle cx="433.2" cy="255.0" r="2.4" fill="#16a34a" opacity="0.78"/>
<circle cx="509.5" cy="291.6" r="2.4" fill="#16a34a" opacity="0.78"/>
<circle cx="585.8" cy="218.7" r="2.4" fill="#16a34a" opacity="0.78"/>
<circle cx="662.0" cy="260.9" r="2.4" fill="#16a34a" opacity="0.78"/>
<circle cx="430" cy="54" r="4" fill="#16a34a"/>
<text x="440" y="58" font-family="system-ui, sans-serif" font-size="11" fill="#111827">forward+right</text>
<polyline points="52.0,225.4 128.2,285.2 204.5,306.0 280.8,307.0 357.0,305.8 433.2,298.4 509.5,261.3 585.8,309.6 662.0,289.5" fill="none" stroke="#9333ea" stroke-width="2.2" stroke-linejoin="round" stroke-linecap="round"/>
<circle cx="52.0" cy="225.4" r="2.4" fill="#9333ea" opacity="0.78"/>
<circle cx="128.2" cy="285.2" r="2.4" fill="#9333ea" opacity="0.78"/>
<circle cx="204.5" cy="306.0" r="2.4" fill="#9333ea" opacity="0.78"/>
<circle cx="280.8" cy="307.0" r="2.4" fill="#9333ea" opacity="0.78"/>
<circle cx="357.0" cy="305.8" r="2.4" fill="#9333ea" opacity="0.78"/>
<circle cx="433.2" cy="298.4" r="2.4" fill="#9333ea" opacity="0.78"/>
<circle cx="509.5" cy="261.3" r="2.4" fill="#9333ea" opacity="0.78"/>
<circle cx="585.8" cy="309.6" r="2.4" fill="#9333ea" opacity="0.78"/>
<circle cx="662.0" cy="289.5" r="2.4" fill="#9333ea" opacity="0.78"/>
<circle cx="430" cy="72" r="4" fill="#9333ea"/>
<text x="440" y="76" font-family="system-ui, sans-serif" font-size="11" fill="#111827">back+left</text>
<text x="296.0" y="356" font-family="system-ui, sans-serif" font-size="11" fill="#374151">duration ms</text>
<text x="4" y="180" transform="rotate(-90 4 180)" font-family="system-ui, sans-serif" font-size="11" fill="#374151">x mm</text>
</svg>
