<svg xmlns="http://www.w3.org/2000/svg" width="980" height="360" viewBox="0 0 980 360">
<rect width="100%" height="100%" fill="#f4efe4" />
<rect x="22" y="22" width="936" height="316" rx="24" fill="#f9f6ef" stroke="#d7d1c4" stroke-width="1.5" />
<text x="490.0" y="52.0" text-anchor="middle" font-size="28" font-weight="900" fill="#233843">Mast View</text>
<rect x="170.0" y="148.0" width="92.0" height="92.0" fill="#1f4b8f" stroke="#122d57" stroke-width="3" rx="12.0" />
<text x="216.0" y="134.0" text-anchor="middle" font-size="28" font-weight="600" fill="#1d2830">Supply</text>
<line class="mast-zero-guide" x1="86.0" y1="194.0" x2="162.0" y2="194.0" stroke="#c8c2b5" stroke-width="2.6" stroke-linecap="round" />
<text x="76.0" y="199.0" text-anchor="end" font-size="12" font-weight="700" fill="#5d676e">0mm</text>
<text x="76.0" y="95.5" text-anchor="end" font-size="11" font-weight="600" fill="#5d676e">+20mm</text>
<text x="76.0" y="300.5" text-anchor="end" font-size="11" font-weight="600" fill="#5d676e">-20mm</text>
<g id="mast-history">
<line class="mast-history-lead" x1="264.0" y1="193.0" x2="272.0" y2="193.0" stroke="#0b3d91" stroke-width="1.4" stroke-linecap="round" opacity="0.95" />
<polyline class="mast-history-trace" points="272.0,193.0 391.6,193.0 511.2,193.0 630.8,193.0 750.4,193.0 870.0,194.0" fill="none" stroke="#9db4da" stroke-width="1.4" stroke-linecap="round" stroke-linejoin="round" opacity="0.55" />
<line class="mast-history-segment" data-recency="older" x1="870.0" y1="194.0" x2="750.4" y2="193.0" stroke="#d3d7dd" stroke-width="1" stroke-linecap="round" />
<line class="mast-history-segment" data-recency="older" x1="750.4" y1="193.0" x2="630.8" y2="193.0" stroke="#d3d7dd" stroke-width="1" stroke-linecap="round" />
<line class="mast-history-segment" data-recency="n-2" x1="630.8" y1="193.0" x2="511.2" y2="193.0" stroke="#63d7ff" stroke-width="1" stroke-linecap="round" />
<line class="mast-history-segment" data-recency="n-1" x1="511.2" y1="193.0" x2="391.6" y2="193.0" stroke="#2563eb" stroke-width="1" stroke-linecap="round" />
<line class="mast-history-segment" data-recency="current" x1="391.6" y1="193.0" x2="272.0" y2="193.0" stroke="#0b3d91" stroke-width="1" stroke-linecap="round" />
</g>
</svg>