<svg xmlns="http://www.w3.org/2000/svg" width="980" height="360" viewBox="0 0 980 360">
<rect width="100%" height="100%" fill="#f4efe4" />
<rect x="22" y="22" width="936" height="316" rx="24" fill="#f9f6ef" stroke="#d7d1c4" stroke-width="1.5" />
<text x="490.0" y="52.0" text-anchor="middle" font-size="28" font-weight="900" fill="#233843">Mast View</text>
<line x1="86.0" y1="316.0" x2="894.0" y2="316.0" stroke="#c8c2b5" stroke-width="3" stroke-linecap="round" />
<rect x="170.0" y="99.5" width="92.0" height="216.5" fill="#63f2f7" stroke="#18494e" stroke-width="3" rx="16" />
<text x="216.0" y="83.5" text-anchor="middle" font-size="28" font-weight="600" fill="#18494e">Supply</text>
<text x="216.0" y="215.8" text-anchor="middle" font-size="26" font-weight="700" fill="#ffffff">5</text>
<rect x="718.0" y="272.7" width="92.0" height="43.3" fill="#c2523c" stroke="#7b2e1e" stroke-width="3" rx="16" />
<text x="764.0" y="256.7" text-anchor="middle" font-size="28" font-weight="600" fill="#7b2e1e">Wall</text>
<text x="764.0" y="302.4" text-anchor="middle" font-size="26" font-weight="700" fill="#ffffff">1</text>
<g id="mast-history">
<polyline class="mast-history-path" points="554.3,285.2 556.2,285.4 557.4,285.6 557.4,285.6 556.8,285.5 556.7,285.5 557.1,285.6 556.9,285.5 556.9,285.5 556.6,285.5 557.0,285.6 557.1,285.6 556.6,285.5 555.3,285.3 553.4,285.0 552.1,284.8 552.1,284.8 550.5,284.6 548.7,284.3 547.2,284.1 545.9,283.9 545.7,283.9 546.2,284.0 546.4,284.0 546.4,284.0 546.5,284.0 546.6,284.0 546.7,284.1 547.0,284.1 545.9,283.9 542.8,283.5 539.8,283.0 537.1,282.7 534.8,282.3 534.8,282.3 533.1,282.1 531.6,281.9 530.5,281.7 529.6,281.6 530.9,281.7 534.5,282.3 537.6,282.7 540.1,283.1 541.9,283.4 542.8,283.5 542.8,283.5 543.5,283.6 544.3,283.7 545.0,283.8 545.6,283.9 546.0,284.0 546.7,284.0 547.4,284.2 548.0,284.2 548.0,284.2 548.1,284.3 547.8,284.2 547.7,284.2 547.8,284.2 546.7,284.1" fill="none" stroke="#b7aea0" stroke-width="2.4" stroke-linecap="round" stroke-linejoin="round" opacity="0.85" />
<circle class="mast-history-dot" data-trend="unknown" cx="554.3" cy="285.2" r="2.0" fill="#7b7668" fill-opacity="0.51" stroke="#f9f6ef" stroke-width="2" />
<circle class="mast-history-dot" data-trend="neutral" cx="556.2" cy="285.4" r="2.0" fill="#c59d2a" fill-opacity="0.51" stroke="#f9f6ef" stroke-width="2" />
<circle class="mast-history-dot" data-trend="neutral" cx="557.4" cy="285.6" r="2.0" fill="#c59d2a" fill-opacity="0.52" stroke="#f9f6ef" stroke-width="2" />
<circle class="mast-history-dot" data-trend="neutral" cx="557.4" cy="285.6" r="2.0" fill="#c59d2a" fill-opacity="0.53" stroke="#f9f6ef" stroke-width="2" />
<circle class="mast-history-dot" data-trend="neutral" cx="556.8" cy="285.5" r="2.0" fill="#c59d2a" fill-opacity="0.53" stroke="#f9f6ef" stroke-width="2" />
<circle class="mast-history-dot" data-trend="neutral" cx="556.7" cy="285.5" r="2.0" fill="#c59d2a" fill-opacity="0.54" stroke="#f9f6ef" stroke-width="2" />
<circle class="mast-history-dot" data-trend="neutral" cx="557.1" cy="285.6" r="2.0" fill="#c59d2a" fill-opacity="0.55" stroke="#f9f6ef" stroke-width="2" />
<circle class="mast-history-dot" data-trend="neutral" cx="556.9" cy="285.5" r="2.0" fill="#c59d2a" fill-opacity="0.55" stroke="#f9f6ef" stroke-width="2" />
<circle class="mast-history-dot" data-trend="neutral" cx="556.9" cy="285.5" r="2.0" fill="#c59d2a" fill-opacity="0.56" stroke="#f9f6ef" stroke-width="2" />
<circle class="mast-history-dot" data-trend="neutral" cx="556.6" cy="285.5" r="2.0" fill="#c59d2a" fill-opacity="0.57" stroke="#f9f6ef" stroke-width="2" />
<circle class="mast-history-dot" data-trend="neutral" cx="557.0" cy="285.6" r="2.0" fill="#c59d2a" fill-opacity="0.57" stroke="#f9f6ef" stroke-width="2" />
<circle class="mast-history-dot" data-trend="neutral" cx="557.1" cy="285.6" r="2.0" fill="#c59d2a" fill-opacity="0.58" stroke="#f9f6ef" stroke-width="2" />
<circle class="mast-history-dot" data-trend="neutral" cx="556.6" cy="285.5" r="2.0" fill="#c59d2a" fill-opacity="0.59" stroke="#f9f6ef" stroke-width="2" />
<circle class="mast-history-dot" data-trend="neutral" cx="555.3" cy="285.3" r="2.0" fill="#c59d2a" fill-opacity="0.59" stroke="#f9f6ef" stroke-width="2" />
<circle class="mast-history-dot" data-trend="neutral" cx="553.4" cy="285.0" r="2.0" fill="#c59d2a" fill-opacity="0.60" stroke="#f9f6ef" stroke-width="2" />
<circle class="mast-history-dot" data-trend="neutral" cx="552.1" cy="284.8" r="2.0" fill="#c59d2a" fill-opacity="0.61" stroke="#f9f6ef" stroke-width="2" />
<circle class="mast-history-dot" data-trend="neutral" cx="552.1" cy="284.8" r="2.0" fill="#c59d2a" fill-opacity="0.61" stroke="#f9f6ef" stroke-width="2" />
<circle class="mast-history-dot" data-trend="neutral" cx="550.5" cy="284.6" r="2.0" fill="#c59d2a" fill-opacity="0.62" stroke="#f9f6ef" stroke-width="2" />
<circle class="mast-history-dot" data-trend="neutral" cx="548.7" cy="284.3" r="2.0" fill="#c59d2a" fill-opacity="0.63" stroke="#f9f6ef" stroke-width="2" />
<circle class="mast-history-dot" data-trend="neutral" cx="547.2" cy="284.1" r="2.0" fill="#c59d2a" fill-opacity="0.63" stroke="#f9f6ef" stroke-width="2" />
<circle class="mast-history-dot" data-trend="neutral" cx="545.9" cy="283.9" r="2.0" fill="#c59d2a" fill-opacity="0.64" stroke="#f9f6ef" stroke-width="2" />
<circle class="mast-history-dot" data-trend="neutral" cx="545.7" cy="283.9" r="2.0" fill="#c59d2a" fill-opacity="0.65" stroke="#f9f6ef" stroke-width="2" />
<circle class="mast-history-dot" data-trend="neutral" cx="546.2" cy="284.0" r="2.0" fill="#c59d2a" fill-opacity="0.65" stroke="#f9f6ef" stroke-width="2" />
<circle class="mast-history-dot" data-trend="neutral" cx="546.4" cy="284.0" r="2.0" fill="#c59d2a" fill-opacity="0.66" stroke="#f9f6ef" stroke-width="2" />
<circle class="mast-history-dot" data-trend="neutral" cx="546.4" cy="284.0" r="2.0" fill="#c59d2a" fill-opacity="0.67" stroke="#f9f6ef" stroke-width="2" />
<circle class="mast-history-dot" data-trend="neutral" cx="546.5" cy="284.0" r="2.0" fill="#c59d2a" fill-opacity="0.67" stroke="#f9f6ef" stroke-width="2" />
<circle class="mast-history-dot" data-trend="neutral" cx="546.6" cy="284.0" r="2.0" fill="#c59d2a" fill-opacity="0.68" stroke="#f9f6ef" stroke-width="2" />
<circle class="mast-history-dot" data-trend="neutral" cx="546.7" cy="284.1" r="2.0" fill="#c59d2a" fill-opacity="0.69" stroke="#f9f6ef" stroke-width="2" />
<circle class="mast-history-dot" data-trend="neutral" cx="547.0" cy="284.1" r="2.0" fill="#c59d2a" fill-opacity="0.69" stroke="#f9f6ef" stroke-width="2" />
<circle class="mast-history-dot" data-trend="neutral" cx="545.9" cy="283.9" r="2.0" fill="#c59d2a" fill-opacity="0.70" stroke="#f9f6ef" stroke-width="2" />
<circle class="mast-history-dot" data-trend="neutral" cx="542.8" cy="283.5" r="2.0" fill="#c59d2a" fill-opacity="0.71" stroke="#f9f6ef" stroke-width="2" />
<circle class="mast-history-dot" data-trend="neutral" cx="539.8" cy="283.0" r="2.0" fill="#c59d2a" fill-opacity="0.71" stroke="#f9f6ef" stroke-width="2" />
<circle class="mast-history-dot" data-trend="neutral" cx="537.1" cy="282.7" r="2.0" fill="#c59d2a" fill-opacity="0.72" stroke="#f9f6ef" stroke-width="2" />
<circle class="mast-history-dot" data-trend="neutral" cx="534.8" cy="282.3" r="2.0" fill="#c59d2a" fill-opacity="0.73" stroke="#f9f6ef" stroke-width="2" />
<circle class="mast-history-dot" data-trend="neutral" cx="534.8" cy="282.3" r="2.0" fill="#c59d2a" fill-opacity="0.73" stroke="#f9f6ef" stroke-width="2" />
<circle class="mast-history-dot" data-trend="neutral" cx="533.1" cy="282.1" r="2.0" fill="#c59d2a" fill-opacity="0.74" stroke="#f9f6ef" stroke-width="2" />
<circle class="mast-history-dot" data-trend="neutral" cx="531.6" cy="281.9" r="2.0" fill="#c59d2a" fill-opacity="0.75" stroke="#f9f6ef" stroke-width="2" />
<circle class="mast-history-dot" data-trend="neutral" cx="530.5" cy="281.7" r="2.0" fill="#c59d2a" fill-opacity="0.75" stroke="#f9f6ef" stroke-width="2" />
<circle class="mast-history-dot" data-trend="neutral" cx="529.6" cy="281.6" r="2.0" fill="#c59d2a" fill-opacity="0.76" stroke="#f9f6ef" stroke-width="2" />
<circle class="mast-history-dot" data-trend="neutral" cx="530.9" cy="281.7" r="2.0" fill="#c59d2a" fill-opacity="0.77" stroke="#f9f6ef" stroke-width="2" />
<circle class="mast-history-dot" data-trend="further" cx="534.5" cy="282.3" r="2.0" fill="#d94841" fill-opacity="0.77" stroke="#f9f6ef" stroke-width="2" />
<circle class="mast-history-dot" data-trend="neutral" cx="537.6" cy="282.7" r="2.0" fill="#c59d2a" fill-opacity="0.78" stroke="#f9f6ef" stroke-width="2" />
<circle class="mast-history-dot" data-trend="neutral" cx="540.1" cy="283.1" r="2.0" fill="#c59d2a" fill-opacity="0.79" stroke="#f9f6ef" stroke-width="2" />
<circle class="mast-history-dot" data-trend="neutral" cx="541.9" cy="283.4" r="2.0" fill="#c59d2a" fill-opacity="0.79" stroke="#f9f6ef" stroke-width="2" />
<circle class="mast-history-dot" data-trend="neutral" cx="542.8" cy="283.5" r="2.0" fill="#c59d2a" fill-opacity="0.80" stroke="#f9f6ef" stroke-width="2" />
<circle class="mast-history-dot" data-trend="neutral" cx="542.8" cy="283.5" r="2.0" fill="#c59d2a" fill-opacity="0.81" stroke="#f9f6ef" stroke-width="2" />
<circle class="mast-history-dot" data-trend="neutral" cx="543.5" cy="283.6" r="2.0" fill="#c59d2a" fill-opacity="0.81" stroke="#f9f6ef" stroke-width="2" />
<circle class="mast-history-dot" data-trend="neutral" cx="544.3" cy="283.7" r="2.0" fill="#c59d2a" fill-opacity="0.82" stroke="#f9f6ef" stroke-width="2" />
<circle class="mast-history-dot" data-trend="neutral" cx="545.0" cy="283.8" r="2.0" fill="#c59d2a" fill-opacity="0.83" stroke="#f9f6ef" stroke-width="2" />
<circle class="mast-history-dot" data-trend="neutral" cx="545.6" cy="283.9" r="2.0" fill="#c59d2a" fill-opacity="0.83" stroke="#f9f6ef" stroke-width="2" />
<circle class="mast-history-dot" data-trend="neutral" cx="546.0" cy="284.0" r="2.0" fill="#c59d2a" fill-opacity="0.84" stroke="#f9f6ef" stroke-width="2" />
<circle class="mast-history-dot" data-trend="neutral" cx="546.7" cy="284.0" r="2.0" fill="#c59d2a" fill-opacity="0.85" stroke="#f9f6ef" stroke-width="2" />
<circle class="mast-history-dot" data-trend="neutral" cx="547.4" cy="284.2" r="2.0" fill="#c59d2a" fill-opacity="0.85" stroke="#f9f6ef" stroke-width="2" />
<circle class="mast-history-dot" data-trend="neutral" cx="548.0" cy="284.2" r="2.0" fill="#c59d2a" fill-opacity="0.86" stroke="#f9f6ef" stroke-width="2" />
<circle class="mast-history-dot" data-trend="neutral" cx="548.0" cy="284.2" r="2.0" fill="#c59d2a" fill-opacity="0.87" stroke="#f9f6ef" stroke-width="2" />
<circle class="mast-history-dot" data-trend="neutral" cx="548.1" cy="284.3" r="2.0" fill="#c59d2a" fill-opacity="0.87" stroke="#f9f6ef" stroke-width="2" />
<circle class="mast-history-dot" data-trend="neutral" cx="547.8" cy="284.2" r="2.0" fill="#c59d2a" fill-opacity="0.88" stroke="#f9f6ef" stroke-width="2" />
<circle class="mast-history-dot" data-trend="neutral" cx="547.7" cy="284.2" r="6.0" fill="#c59d2a" fill-opacity="0.89" stroke="#f9f6ef" stroke-width="2" />
<circle class="mast-history-dot" data-trend="neutral" cx="547.8" cy="284.2" r="6.0" fill="#c59d2a" fill-opacity="0.89" stroke="#f9f6ef" stroke-width="2" />
<circle class="mast-history-dot" data-trend="neutral" cx="546.7" cy="284.1" r="6.0" fill="#c59d2a" fill-opacity="0.90" stroke="#f9f6ef" stroke-width="2" />
</g>
<circle class="mast-camera-dot" data-trend="neutral" cx="546.7" cy="284.1" r="8.0" fill="#c59d2a" stroke="#233843" stroke-width="2.2" />
<text x="546.7" y="270.1" text-anchor="middle" font-size="14" font-weight="600" fill="#233843">y=+8mm</text>
</svg>