<svg xmlns="http://www.w3.org/2000/svg" width="980" height="360" viewBox="0 0 980 360">
<rect width="100%" height="100%" fill="#f4efe4" />
<rect x="22" y="22" width="936" height="316" rx="24" fill="#f9f6ef" stroke="#d7d1c4" stroke-width="1.5" />
<text x="490.0" y="52.0" text-anchor="middle" font-size="28" font-weight="900" fill="#233843">Mast View</text>
<line x1="86.0" y1="316.0" x2="894.0" y2="316.0" stroke="#c8c2b5" stroke-width="3" stroke-linecap="round" />
<rect x="170.0" y="151.1" width="92.0" height="164.9" fill="#63f2f7" stroke="#18494e" stroke-width="3" rx="16" />
<text x="216.0" y="135.1" text-anchor="middle" font-size="28" font-weight="600" fill="#18494e">Supply</text>
<text x="216.0" y="241.6" text-anchor="middle" font-size="26" font-weight="700" fill="#ffffff">3</text>
<rect x="718.0" y="261.0" width="92.0" height="55.0" fill="#c2523c" stroke="#7b2e1e" stroke-width="3" rx="16" />
<text x="764.0" y="245.0" text-anchor="middle" font-size="28" font-weight="600" fill="#7b2e1e">Wall</text>
<text x="764.0" y="296.5" text-anchor="middle" font-size="26" font-weight="700" fill="#ffffff">1</text>
<circle class="mast-history-dot" data-trend="unknown" cx="574.0" cy="107.0" r="2.0" fill="#7b7668" fill-opacity="0.51" stroke="#f9f6ef" stroke-width="2" />
<circle class="mast-history-dot" data-trend="further" cx="576.0" cy="107.0" r="2.0" fill="#d94841" fill-opacity="0.51" stroke="#f9f6ef" stroke-width="2" />
<circle class="mast-history-dot" data-trend="closer" cx="574.9" cy="107.0" r="2.0" fill="#2f9e44" fill-opacity="0.52" stroke="#f9f6ef" stroke-width="2" />
<circle class="mast-history-dot" data-trend="further" cx="579.8" cy="107.0" r="2.0" fill="#d94841" fill-opacity="0.53" stroke="#f9f6ef" stroke-width="2" />
<circle class="mast-history-dot" data-trend="further" cx="581.3" cy="107.0" r="2.0" fill="#d94841" fill-opacity="0.53" stroke="#f9f6ef" stroke-width="2" />
<circle class="mast-history-dot" data-trend="further" cx="582.7" cy="107.0" r="2.0" fill="#d94841" fill-opacity="0.54" stroke="#f9f6ef" stroke-width="2" />
<circle class="mast-history-dot" data-trend="closer" cx="581.9" cy="107.0" r="2.0" fill="#2f9e44" fill-opacity="0.55" stroke="#f9f6ef" stroke-width="2" />
<circle class="mast-history-dot" data-trend="further" cx="584.8" cy="107.0" r="2.0" fill="#d94841" fill-opacity="0.55" stroke="#f9f6ef" stroke-width="2" />
<circle class="mast-history-dot" data-trend="further" cx="585.8" cy="107.0" r="2.0" fill="#d94841" fill-opacity="0.56" stroke="#f9f6ef" stroke-width="2" />
<circle class="mast-history-dot" data-trend="further" cx="586.7" cy="107.0" r="2.0" fill="#d94841" fill-opacity="0.57" stroke="#f9f6ef" stroke-width="2" />
<circle class="mast-history-dot" data-trend="further" cx="587.4" cy="107.0" r="2.0" fill="#d94841" fill-opacity="0.57" stroke="#f9f6ef" stroke-width="2" />
<circle class="mast-history-dot" data-trend="further" cx="587.7" cy="107.0" r="2.0" fill="#d94841" fill-opacity="0.58" stroke="#f9f6ef" stroke-width="2" />
<circle class="mast-history-dot" data-trend="further" cx="588.2" cy="107.0" r="2.0" fill="#d94841" fill-opacity="0.59" stroke="#f9f6ef" stroke-width="2" />
<circle class="mast-history-dot" data-trend="further" cx="588.7" cy="107.0" r="2.0" fill="#d94841" fill-opacity="0.59" stroke="#f9f6ef" stroke-width="2" />
<circle class="mast-history-dot" data-trend="further" cx="589.2" cy="107.0" r="2.0" fill="#d94841" fill-opacity="0.60" stroke="#f9f6ef" stroke-width="2" />
<circle class="mast-history-dot" data-trend="further" cx="589.6" cy="107.0" r="2.0" fill="#d94841" fill-opacity="0.61" stroke="#f9f6ef" stroke-width="2" />
<circle class="mast-history-dot" data-trend="further" cx="589.8" cy="107.0" r="2.0" fill="#d94841" fill-opacity="0.61" stroke="#f9f6ef" stroke-width="2" />
<circle class="mast-history-dot" data-trend="further" cx="595.7" cy="134.9" r="2.0" fill="#d94841" fill-opacity="0.62" stroke="#f9f6ef" stroke-width="2" />
<circle class="mast-history-dot" data-trend="further" cx="598.0" cy="134.9" r="2.0" fill="#d94841" fill-opacity="0.63" stroke="#f9f6ef" stroke-width="2" />
<circle class="mast-history-dot" data-trend="closer" cx="597.7" cy="134.9" r="2.0" fill="#2f9e44" fill-opacity="0.63" stroke="#f9f6ef" stroke-width="2" />
<circle class="mast-history-dot" data-trend="closer" cx="593.8" cy="134.9" r="2.0" fill="#2f9e44" fill-opacity="0.64" stroke="#f9f6ef" stroke-width="2" />
<circle class="mast-history-dot" data-trend="closer" cx="589.1" cy="134.9" r="2.0" fill="#2f9e44" fill-opacity="0.65" stroke="#f9f6ef" stroke-width="2" />
<circle class="mast-history-dot" data-trend="closer" cx="583.7" cy="134.9" r="2.0" fill="#2f9e44" fill-opacity="0.65" stroke="#f9f6ef" stroke-width="2" />
<circle class="mast-history-dot" data-trend="closer" cx="577.2" cy="134.9" r="2.0" fill="#2f9e44" fill-opacity="0.66" stroke="#f9f6ef" stroke-width="2" />
<circle class="mast-history-dot" data-trend="closer" cx="570.7" cy="134.9" r="2.0" fill="#2f9e44" fill-opacity="0.67" stroke="#f9f6ef" stroke-width="2" />
<circle class="mast-history-dot" data-trend="closer" cx="564.5" cy="134.9" r="2.0" fill="#2f9e44" fill-opacity="0.67" stroke="#f9f6ef" stroke-width="2" />
<circle class="mast-history-dot" data-trend="closer" cx="557.8" cy="134.9" r="2.0" fill="#2f9e44" fill-opacity="0.68" stroke="#f9f6ef" stroke-width="2" />
<circle class="mast-history-dot" data-trend="closer" cx="551.7" cy="134.9" r="2.0" fill="#2f9e44" fill-opacity="0.69" stroke="#f9f6ef" stroke-width="2" />
<circle class="mast-history-dot" data-trend="closer" cx="546.0" cy="134.9" r="2.0" fill="#2f9e44" fill-opacity="0.69" stroke="#f9f6ef" stroke-width="2" />
<circle class="mast-history-dot" data-trend="closer" cx="540.3" cy="134.9" r="2.0" fill="#2f9e44" fill-opacity="0.70" stroke="#f9f6ef" stroke-width="2" />
<circle class="mast-history-dot" data-trend="closer" cx="535.2" cy="134.9" r="2.0" fill="#2f9e44" fill-opacity="0.71" stroke="#f9f6ef" stroke-width="2" />
<circle class="mast-history-dot" data-trend="closer" cx="530.6" cy="134.9" r="2.0" fill="#2f9e44" fill-opacity="0.71" stroke="#f9f6ef" stroke-width="2" />
<circle class="mast-history-dot" data-trend="closer" cx="526.0" cy="134.9" r="2.0" fill="#2f9e44" fill-opacity="0.72" stroke="#f9f6ef" stroke-width="2" />
<circle class="mast-history-dot" data-trend="closer" cx="522.0" cy="134.9" r="2.0" fill="#2f9e44" fill-opacity="0.73" stroke="#f9f6ef" stroke-width="2" />
<circle class="mast-history-dot" data-trend="closer" cx="518.5" cy="134.9" r="2.0" fill="#2f9e44" fill-opacity="0.73" stroke="#f9f6ef" stroke-width="2" />
<circle class="mast-history-dot" data-trend="closer" cx="515.1" cy="134.9" r="2.0" fill="#2f9e44" fill-opacity="0.74" stroke="#f9f6ef" stroke-width="2" />
<circle class="mast-history-dot" data-trend="closer" cx="512.1" cy="134.9" r="2.0" fill="#2f9e44" fill-opacity="0.75" stroke="#f9f6ef" stroke-width="2" />
<circle class="mast-history-dot" data-trend="closer" cx="510.8" cy="134.9" r="2.0" fill="#2f9e44" fill-opacity="0.75" stroke="#f9f6ef" stroke-width="2" />
<circle class="mast-history-dot" data-trend="closer" cx="508.3" cy="134.9" r="2.0" fill="#2f9e44" fill-opacity="0.76" stroke="#f9f6ef" stroke-width="2" />
<circle class="mast-history-dot" data-trend="closer" cx="506.0" cy="134.9" r="2.0" fill="#2f9e44" fill-opacity="0.77" stroke="#f9f6ef" stroke-width="2" />
<circle class="mast-history-dot" data-trend="closer" cx="503.9" cy="134.9" r="2.0" fill="#2f9e44" fill-opacity="0.77" stroke="#f9f6ef" stroke-width="2" />
<circle class="mast-history-dot" data-trend="closer" cx="502.0" cy="134.9" r="2.0" fill="#2f9e44" fill-opacity="0.78" stroke="#f9f6ef" stroke-width="2" />
<circle class="mast-history-dot" data-trend="closer" cx="500.3" cy="134.9" r="2.0" fill="#2f9e44" fill-opacity="0.79" stroke="#f9f6ef" stroke-width="2" />
<circle class="mast-history-dot" data-trend="closer" cx="498.8" cy="134.9" r="2.0" fill="#2f9e44" fill-opacity="0.79" stroke="#f9f6ef" stroke-width="2" />
<circle class="mast-history-dot" data-trend="closer" cx="497.0" cy="134.9" r="2.0" fill="#2f9e44" fill-opacity="0.80" stroke="#f9f6ef" stroke-width="2" />
<circle class="mast-history-dot" data-trend="closer" cx="496.1" cy="134.9" r="2.0" fill="#2f9e44" fill-opacity="0.81" stroke="#f9f6ef" stroke-width="2" />
<circle class="mast-history-dot" data-trend="closer" cx="495.6" cy="134.9" r="2.0" fill="#2f9e44" fill-opacity="0.81" stroke="#f9f6ef" stroke-width="2" />
<circle class="mast-history-dot" data-trend="closer" cx="494.7" cy="134.9" r="2.0" fill="#2f9e44" fill-opacity="0.82" stroke="#f9f6ef" stroke-width="2" />
<circle class="mast-history-dot" data-trend="closer" cx="494.1" cy="134.9" r="2.0" fill="#2f9e44" fill-opacity="0.83" stroke="#f9f6ef" stroke-width="2" />
<circle class="mast-history-dot" data-trend="closer" cx="493.4" cy="134.9" r="2.0" fill="#2f9e44" fill-opacity="0.83" stroke="#f9f6ef" stroke-width="2" />
<circle class="mast-history-dot" data-trend="closer" cx="493.1" cy="134.9" r="2.0" fill="#2f9e44" fill-opacity="0.84" stroke="#f9f6ef" stroke-width="2" />
<circle class="mast-history-dot" data-trend="neutral" cx="493.0" cy="134.9" r="2.0" fill="#c59d2a" fill-opacity="0.85" stroke="#f9f6ef" stroke-width="2" />
<circle class="mast-history-dot" data-trend="closer" cx="492.8" cy="134.9" r="2.0" fill="#2f9e44" fill-opacity="0.85" stroke="#f9f6ef" stroke-width="2" />
<circle class="mast-history-dot" data-trend="closer" cx="492.5" cy="134.9" r="2.0" fill="#2f9e44" fill-opacity="0.86" stroke="#f9f6ef" stroke-width="2" />
<circle class="mast-history-dot" data-trend="closer" cx="492.2" cy="134.9" r="2.0" fill="#2f9e44" fill-opacity="0.87" stroke="#f9f6ef" stroke-width="2" />
<circle class="mast-history-dot" data-trend="closer" cx="492.0" cy="134.9" r="2.0" fill="#2f9e44" fill-opacity="0.87" stroke="#f9f6ef" stroke-width="2" />
<circle class="mast-history-dot" data-trend="closer" cx="491.7" cy="134.9" r="2.0" fill="#2f9e44" fill-opacity="0.88" stroke="#f9f6ef" stroke-width="2" />
<circle class="mast-history-dot" data-trend="further" cx="538.4" cy="134.9" r="6.0" fill="#d94841" fill-opacity="0.89" stroke="#f9f6ef" stroke-width="2" />
<circle class="mast-history-dot" data-trend="closer" cx="491.4" cy="134.9" r="6.0" fill="#2f9e44" fill-opacity="0.89" stroke="#f9f6ef" stroke-width="2" />
<circle class="mast-history-dot" data-trend="neutral" cx="491.3" cy="134.9" r="6.0" fill="#c59d2a" fill-opacity="0.90" stroke="#f9f6ef" stroke-width="2" />
<g id="mast-history">
<polyline class="mast-history-path" points="586.7,107.0 587.4,107.0 587.7,107.0 588.2,107.0 588.7,107.0 589.2,107.0 589.6,107.0 589.8,107.0 595.7,134.9 598.0,134.9 597.7,134.9 593.8,134.9 589.1,134.9 583.7,134.9 577.2,134.9 570.7,134.9 564.5,134.9 557.8,134.9 551.7,134.9 546.0,134.9 540.3,134.9 535.2,134.9 530.6,134.9 526.0,134.9 522.0,134.9 518.5,134.9 515.1,134.9 512.1,134.9 510.8,134.9 508.3,134.9 506.0,134.9 503.9,134.9 502.0,134.9 500.3,134.9 498.8,134.9 497.0,134.9 496.1,134.9 495.6,134.9 494.7,134.9 494.1,134.9 493.4,134.9 493.1,134.9 493.0,134.9 492.8,134.9 492.5,134.9 492.2,134.9 492.0,134.9 491.7,134.9 538.4,134.9 491.4,134.9 491.3,134.9" fill="none" stroke="#b7aea0" stroke-width="2.4" stroke-linecap="round" stroke-linejoin="round" opacity="0.85" />
</g>
<circle class="mast-camera-dot" data-trend="neutral" cx="491.3" cy="134.9" r="8.0" fill="#c59d2a" stroke="#233843" stroke-width="2.2" />
<text x="491.3" y="120.9" text-anchor="middle" font-size="14" font-weight="600" fill="#233843">y=+4mm</text>
</svg>