<svg xmlns="http://www.w3.org/2000/svg" width="980" height="360" viewBox="0 0 980 360">
<rect width="100%" height="100%" fill="#f4efe4" />
<rect x="22" y="22" width="936" height="316" rx="24" fill="#f9f6ef" stroke="#d7d1c4" stroke-width="1.5" />
<text x="490.0" y="52.0" text-anchor="middle" font-size="28" font-weight="900" fill="#233843">Mast View</text>
<rect x="170.0" y="148.0" width="92.0" height="92.0" fill="#1f4b8f" stroke="#122d57" stroke-width="3" rx="12.0" />
<text x="216.0" y="134.0" text-anchor="middle" font-size="28" font-weight="600" fill="#1d2830">Supply</text>
<line class="mast-zero-guide" x1="86.0" y1="194.0" x2="162.0" y2="194.0" stroke="#c8c2b5" stroke-width="2.6" stroke-linecap="round" />
<text x="76.0" y="199.0" text-anchor="end" font-size="12" font-weight="700" fill="#5d676e">0mm</text>
<text x="76.0" y="95.5" text-anchor="end" font-size="11" font-weight="600" fill="#5d676e">+10mm</text>
<text x="76.0" y="300.5" text-anchor="end" font-size="11" font-weight="600" fill="#5d676e">-10mm</text>
<g id="mast-history">
<line class="mast-history-lead" x1="264.0" y1="155.2" x2="272.0" y2="155.2" stroke="#0b3d91" stroke-width="1.4" stroke-linecap="round" opacity="0.95" />
<polyline class="mast-history-trace" points="272.0,155.2 279.8,154.3 287.5,153.3 295.3,153.3 303.1,153.3 310.8,145.0 318.6,145.0 326.4,145.0 334.1,133.6 341.9,133.6 349.7,133.6 357.4,128.6 365.2,128.6 373.0,128.6 380.7,125.3 388.5,125.3 396.3,125.3 404.0,121.0 411.8,121.0 419.6,121.0 427.3,117.5 435.1,117.5 442.9,117.5 450.6,114.8 458.4,114.8 466.2,114.8 473.9,113.8 481.7,113.8 489.5,113.8 497.2,113.9 505.0,113.9 512.8,114.0 520.5,114.0 528.3,117.1 536.1,117.7 543.8,118.8 551.6,118.8 559.4,118.8 567.1,118.5 574.9,118.5 582.6,118.5 590.4,124.1 598.2,124.1 605.9,124.1 613.7,144.3 621.5,144.3 629.2,144.3 637.0,150.9 644.8,150.9 652.5,150.9 660.3,157.7 668.1,157.7 675.8,157.7 683.6,165.9 691.4,165.9 699.1,165.9 706.9,170.9 714.7,170.9 722.4,170.9 730.2,174.8 738.0,174.8 745.7,174.8 753.5,177.4 761.3,177.4 769.0,177.4 776.8,178.4 784.6,178.4 792.3,178.4 800.1,178.2 807.9,178.2 815.6,178.2 823.4,177.0 831.2,177.0 838.9,177.0 846.7,176.8 854.5,176.8 862.2,176.8 870.0,176.8" fill="none" stroke="#9db4da" stroke-width="1.4" stroke-linecap="round" stroke-linejoin="round" opacity="0.55" />
<line class="mast-history-segment" data-recency="older" x1="870.0" y1="176.8" x2="862.2" y2="176.8" stroke="#d3d7dd" stroke-width="1" stroke-linecap="round" />
<line class="mast-history-segment" data-recency="older" x1="862.2" y1="176.8" x2="854.5" y2="176.8" stroke="#d3d7dd" stroke-width="1" stroke-linecap="round" />
<line class="mast-history-segment" data-recency="older" x1="854.5" y1="176.8" x2="846.7" y2="176.8" stroke="#d3d7dd" stroke-width="1" stroke-linecap="round" />
<line class="mast-history-segment" data-recency="older" x1="846.7" y1="176.8" x2="838.9" y2="177.0" stroke="#d3d7dd" stroke-width="1" stroke-linecap="round" />
<line class="mast-history-segment" data-recency="older" x1="838.9" y1="177.0" x2="831.2" y2="177.0" stroke="#d3d7dd" stroke-width="1" stroke-linecap="round" />
<line class="mast-history-segment" data-recency="older" x1="831.2" y1="177.0" x2="823.4" y2="177.0" stroke="#d3d7dd" stroke-width="1" stroke-linecap="round" />
<line class="mast-history-segment" data-recency="older" x1="823.4" y1="177.0" x2="815.6" y2="178.2" stroke="#d3d7dd" stroke-width="1" stroke-linecap="round" />
<line class="mast-history-segment" data-recency="older" x1="815.6" y1="178.2" x2="807.9" y2="178.2" stroke="#d3d7dd" stroke-width="1" stroke-linecap="round" />
<line class="mast-history-segment" data-recency="older" x1="807.9" y1="178.2" x2="800.1" y2="178.2" stroke="#d3d7dd" stroke-width="1" stroke-linecap="round" />
<line class="mast-history-segment" data-recency="older" x1="800.1" y1="178.2" x2="792.3" y2="178.4" stroke="#d3d7dd" stroke-width="1" stroke-linecap="round" />
<line class="mast-history-segment" data-recency="older" x1="792.3" y1="178.4" x2="784.6" y2="178.4" stroke="#d3d7dd" stroke-width="1" stroke-linecap="round" />
<line class="mast-history-segment" data-recency="older" x1="784.6" y1="178.4" x2="776.8" y2="178.4" stroke="#d3d7dd" stroke-width="1" stroke-linecap="round" />
<line class="mast-history-segment" data-recency="older" x1="776.8" y1="178.4" x2="769.0" y2="177.4" stroke="#d3d7dd" stroke-width="1" stroke-linecap="round" />
<line class="mast-history-segment" data-recency="older" x1="769.0" y1="177.4" x2="761.3" y2="177.4" stroke="#d3d7dd" stroke-width="1" stroke-linecap="round" />
<line class="mast-history-segment" data-recency="older" x1="761.3" y1="177.4" x2="753.5" y2="177.4" stroke="#d3d7dd" stroke-width="1" stroke-linecap="round" />
<line class="mast-history-segment" data-recency="older" x1="753.5" y1="177.4" x2="745.7" y2="174.8" stroke="#d3d7dd" stroke-width="1" stroke-linecap="round" />
<line class="mast-history-segment" data-recency="older" x1="745.7" y1="174.8" x2="738.0" y2="174.8" stroke="#d3d7dd" stroke-width="1" stroke-linecap="round" />
<line class="mast-history-segment" data-recency="older" x1="738.0" y1="174.8" x2="730.2" y2="174.8" stroke="#d3d7dd" stroke-width="1" stroke-linecap="round" />
<line class="mast-history-segment" data-recency="older" x1="730.2" y1="174.8" x2="722.4" y2="170.9" stroke="#d3d7dd" stroke-width="1" stroke-linecap="round" />
<line class="mast-history-segment" data-recency="older" x1="722.4" y1="170.9" x2="714.7" y2="170.9" stroke="#d3d7dd" stroke-width="1" stroke-linecap="round" />
<line class="mast-history-segment" data-recency="older" x1="714.7" y1="170.9" x2="706.9" y2="170.9" stroke="#d3d7dd" stroke-width="1" stroke-linecap="round" />
<line class="mast-history-segment" data-recency="older" x1="706.9" y1="170.9" x2="699.1" y2="165.9" stroke="#d3d7dd" stroke-width="1" stroke-linecap="round" />
<line class="mast-history-segment" data-recency="older" x1="699.1" y1="165.9" x2="691.4" y2="165.9" stroke="#d3d7dd" stroke-width="1" stroke-linecap="round" />
<line class="mast-history-segment" data-recency="older" x1="691.4" y1="165.9" x2="683.6" y2="165.9" stroke="#d3d7dd" stroke-width="1" stroke-linecap="round" />
<line class="mast-history-segment" data-recency="older" x1="683.6" y1="165.9" x2="675.8" y2="157.7" stroke="#d3d7dd" stroke-width="1" stroke-linecap="round" />
<line class="mast-history-segment" data-recency="older" x1="675.8" y1="157.7" x2="668.1" y2="157.7" stroke="#d3d7dd" stroke-width="1" stroke-linecap="round" />
<line class="mast-history-segment" data-recency="older" x1="668.1" y1="157.7" x2="660.3" y2="157.7" stroke="#d3d7dd" stroke-width="1" stroke-linecap="round" />
<line class="mast-history-segment" data-recency="older" x1="660.3" y1="157.7" x2="652.5" y2="150.9" stroke="#d3d7dd" stroke-width="1" stroke-linecap="round" />
<line class="mast-history-segment" data-recency="older" x1="652.5" y1="150.9" x2="644.8" y2="150.9" stroke="#d3d7dd" stroke-width="1" stroke-linecap="round" />
<line class="mast-history-segment" data-recency="older" x1="644.8" y1="150.9" x2="637.0" y2="150.9" stroke="#d3d7dd" stroke-width="1" stroke-linecap="round" />
<line class="mast-history-segment" data-recency="older" x1="637.0" y1="150.9" x2="629.2" y2="144.3" stroke="#d3d7dd" stroke-width="1" stroke-linecap="round" />
<line class="mast-history-segment" data-recency="older" x1="629.2" y1="144.3" x2="621.5" y2="144.3" stroke="#d3d7dd" stroke-width="1" stroke-linecap="round" />
<line class="mast-history-segment" data-recency="older" x1="621.5" y1="144.3" x2="613.7" y2="144.3" stroke="#d3d7dd" stroke-width="1" stroke-linecap="round" />
<line class="mast-history-segment" data-recency="older" x1="613.7" y1="144.3" x2="605.9" y2="124.1" stroke="#d3d7dd" stroke-width="1" stroke-linecap="round" />
<line class="mast-history-segment" data-recency="older" x1="605.9" y1="124.1" x2="598.2" y2="124.1" stroke="#d3d7dd" stroke-width="1" stroke-linecap="round" />
<line class="mast-history-segment" data-recency="older" x1="598.2" y1="124.1" x2="590.4" y2="124.1" stroke="#d3d7dd" stroke-width="1" stroke-linecap="round" />
<line class="mast-history-segment" data-recency="older" x1="590.4" y1="124.1" x2="582.6" y2="118.5" stroke="#d3d7dd" stroke-width="1" stroke-linecap="round" />
<line class="mast-history-segment" data-recency="older" x1="582.6" y1="118.5" x2="574.9" y2="118.5" stroke="#d3d7dd" stroke-width="1" stroke-linecap="round" />
<line class="mast-history-segment" data-recency="older" x1="574.9" y1="118.5" x2="567.1" y2="118.5" stroke="#d3d7dd" stroke-width="1" stroke-linecap="round" />
<line class="mast-history-segment" data-recency="older" x1="567.1" y1="118.5" x2="559.4" y2="118.8" stroke="#d3d7dd" stroke-width="1" stroke-linecap="round" />
<line class="mast-history-segment" data-recency="older" x1="559.4" y1="118.8" x2="551.6" y2="118.8" stroke="#d3d7dd" stroke-width="1" stroke-linecap="round" />
<line class="mast-history-segment" data-recency="older" x1="551.6" y1="118.8" x2="543.8" y2="118.8" stroke="#d3d7dd" stroke-width="1" stroke-linecap="round" />
<line class="mast-history-segment" data-recency="older" x1="543.8" y1="118.8" x2="536.1" y2="117.7" stroke="#d3d7dd" stroke-width="1" stroke-linecap="round" />
<line class="mast-history-segment" data-recency="older" x1="536.1" y1="117.7" x2="528.3" y2="117.1" stroke="#d3d7dd" stroke-width="1" stroke-linecap="round" />
<line class="mast-history-segment" data-recency="older" x1="528.3" y1="117.1" x2="520.5" y2="114.0" stroke="#d3d7dd" stroke-width="1" stroke-linecap="round" />
<line class="mast-history-segment" data-recency="older" x1="520.5" y1="114.0" x2="512.8" y2="114.0" stroke="#d3d7dd" stroke-width="1" stroke-linecap="round" />
<line class="mast-history-segment" data-recency="older" x1="512.8" y1="114.0" x2="505.0" y2="113.9" stroke="#d3d7dd" stroke-width="1" stroke-linecap="round" />
<line class="mast-history-segment" data-recency="older" x1="505.0" y1="113.9" x2="497.2" y2="113.9" stroke="#d3d7dd" stroke-width="1" stroke-linecap="round" />
<line class="mast-history-segment" data-recency="older" x1="497.2" y1="113.9" x2="489.5" y2="113.8" stroke="#d3d7dd" stroke-width="1" stroke-linecap="round" />
<line class="mast-history-segment" data-recency="older" x1="489.5" y1="113.8" x2="481.7" y2="113.8" stroke="#d3d7dd" stroke-width="1" stroke-linecap="round" />
<line class="mast-history-segment" data-recency="older" x1="481.7" y1="113.8" x2="473.9" y2="113.8" stroke="#d3d7dd" stroke-width="1" stroke-linecap="round" />
<line class="mast-history-segment" data-recency="older" x1="473.9" y1="113.8" x2="466.2" y2="114.8" stroke="#d3d7dd" stroke-width="1" stroke-linecap="round" />
<line class="mast-history-segment" data-recency="older" x1="466.2" y1="114.8" x2="458.4" y2="114.8" stroke="#d3d7dd" stroke-width="1" stroke-linecap="round" />
<line class="mast-history-segment" data-recency="older" x1="458.4" y1="114.8" x2="450.6" y2="114.8" stroke="#d3d7dd" stroke-width="1" stroke-linecap="round" />
<line class="mast-history-segment" data-recency="older" x1="450.6" y1="114.8" x2="442.9" y2="117.5" stroke="#d3d7dd" stroke-width="1" stroke-linecap="round" />
<line class="mast-history-segment" data-recency="older" x1="442.9" y1="117.5" x2="435.1" y2="117.5" stroke="#d3d7dd" stroke-width="1" stroke-linecap="round" />
<line class="mast-history-segment" data-recency="older" x1="435.1" y1="117.5" x2="427.3" y2="117.5" stroke="#d3d7dd" stroke-width="1" stroke-linecap="round" />
<line class="mast-history-segment" data-recency="older" x1="427.3" y1="117.5" x2="419.6" y2="121.0" stroke="#d3d7dd" stroke-width="1" stroke-linecap="round" />
<line class="mast-history-segment" data-recency="older" x1="419.6" y1="121.0" x2="411.8" y2="121.0" stroke="#d3d7dd" stroke-width="1" stroke-linecap="round" />
<line class="mast-history-segment" data-recency="older" x1="411.8" y1="121.0" x2="404.0" y2="121.0" stroke="#d3d7dd" stroke-width="1" stroke-linecap="round" />
<line class="mast-history-segment" data-recency="older" x1="404.0" y1="121.0" x2="396.3" y2="125.3" stroke="#d3d7dd" stroke-width="1" stroke-linecap="round" />
<line class="mast-history-segment" data-recency="older" x1="396.3" y1="125.3" x2="388.5" y2="125.3" stroke="#d3d7dd" stroke-width="1" stroke-linecap="round" />
<line class="mast-history-segment" data-recency="older" x1="388.5" y1="125.3" x2="380.7" y2="125.3" stroke="#d3d7dd" stroke-width="1" stroke-linecap="round" />
<line class="mast-history-segment" data-recency="older" x1="380.7" y1="125.3" x2="373.0" y2="128.6" stroke="#d3d7dd" stroke-width="1" stroke-linecap="round" />
<line class="mast-history-segment" data-recency="older" x1="373.0" y1="128.6" x2="365.2" y2="128.6" stroke="#d3d7dd" stroke-width="1" stroke-linecap="round" />
<line class="mast-history-segment" data-recency="older" x1="365.2" y1="128.6" x2="357.4" y2="128.6" stroke="#d3d7dd" stroke-width="1" stroke-linecap="round" />
<line class="mast-history-segment" data-recency="older" x1="357.4" y1="128.6" x2="349.7" y2="133.6" stroke="#d3d7dd" stroke-width="1" stroke-linecap="round" />
<line class="mast-history-segment" data-recency="older" x1="349.7" y1="133.6" x2="341.9" y2="133.6" stroke="#d3d7dd" stroke-width="1" stroke-linecap="round" />
<line class="mast-history-segment" data-recency="older" x1="341.9" y1="133.6" x2="334.1" y2="133.6" stroke="#d3d7dd" stroke-width="1" stroke-linecap="round" />
<line class="mast-history-segment" data-recency="older" x1="334.1" y1="133.6" x2="326.4" y2="145.0" stroke="#d3d7dd" stroke-width="1" stroke-linecap="round" />
<line class="mast-history-segment" data-recency="older" x1="326.4" y1="145.0" x2="318.6" y2="145.0" stroke="#d3d7dd" stroke-width="1" stroke-linecap="round" />
<line class="mast-history-segment" data-recency="older" x1="318.6" y1="145.0" x2="310.8" y2="145.0" stroke="#d3d7dd" stroke-width="1" stroke-linecap="round" />
<line class="mast-history-segment" data-recency="older" x1="310.8" y1="145.0" x2="303.1" y2="153.3" stroke="#d3d7dd" stroke-width="1" stroke-linecap="round" />
<line class="mast-history-segment" data-recency="older" x1="303.1" y1="153.3" x2="295.3" y2="153.3" stroke="#d3d7dd" stroke-width="1" stroke-linecap="round" />
<line class="mast-history-segment" data-recency="n-2" x1="295.3" y1="153.3" x2="287.5" y2="153.3" stroke="#63d7ff" stroke-width="1" stroke-linecap="round" />
<line class="mast-history-segment" data-recency="n-1" x1="287.5" y1="153.3" x2="279.8" y2="154.3" stroke="#2563eb" stroke-width="1" stroke-linecap="round" />
<line class="mast-history-segment" data-recency="current" x1="279.8" y1="154.3" x2="272.0" y2="155.2" stroke="#0b3d91" stroke-width="1" stroke-linecap="round" />
</g>
</svg>