<svg xmlns="http://www.w3.org/2000/svg" width="980" height="360" viewBox="0 0 980 360">
<rect width="100%" height="100%" fill="#f4efe4" />
<rect x="22" y="22" width="936" height="316" rx="24" fill="#f9f6ef" stroke="#d7d1c4" stroke-width="1.5" />
<text x="490.0" y="52.0" text-anchor="middle" font-size="28" font-weight="900" fill="#233843">Mast View</text>
<line x1="86.0" y1="316.0" x2="894.0" y2="316.0" stroke="#c8c2b5" stroke-width="3" stroke-linecap="round" />
<rect x="170.0" y="99.5" width="92.0" height="216.5" fill="#63f2f7" stroke="#18494e" stroke-width="3" rx="16" />
<text x="216.0" y="83.5" text-anchor="middle" font-size="28" font-weight="600" fill="#18494e">Supply</text>
<text x="216.0" y="215.8" text-anchor="middle" font-size="26" font-weight="700" fill="#ffffff">5</text>
<rect x="718.0" y="272.7" width="92.0" height="43.3" fill="#c2523c" stroke="#7b2e1e" stroke-width="3" rx="16" />
<text x="764.0" y="256.7" text-anchor="middle" font-size="28" font-weight="600" fill="#7b2e1e">Wall</text>
<text x="764.0" y="302.4" text-anchor="middle" font-size="26" font-weight="700" fill="#ffffff">1</text>
<circle class="mast-history-dot" data-trend="unknown" cx="505.9" cy="272.9" r="2.0" fill="#7b7668" fill-opacity="0.51" stroke="#f9f6ef" stroke-width="2" />
<circle class="mast-history-dot" data-trend="neutral" cx="506.1" cy="272.9" r="2.0" fill="#c59d2a" fill-opacity="0.51" stroke="#f9f6ef" stroke-width="2" />
<circle class="mast-history-dot" data-trend="neutral" cx="505.6" cy="272.9" r="2.0" fill="#c59d2a" fill-opacity="0.52" stroke="#f9f6ef" stroke-width="2" />
<circle class="mast-history-dot" data-trend="neutral" cx="505.7" cy="272.9" r="2.0" fill="#c59d2a" fill-opacity="0.53" stroke="#f9f6ef" stroke-width="2" />
<circle class="mast-history-dot" data-trend="neutral" cx="505.4" cy="272.8" r="2.0" fill="#c59d2a" fill-opacity="0.53" stroke="#f9f6ef" stroke-width="2" />
<circle class="mast-history-dot" data-trend="neutral" cx="508.1" cy="273.2" r="2.0" fill="#c59d2a" fill-opacity="0.54" stroke="#f9f6ef" stroke-width="2" />
<circle class="mast-history-dot" data-trend="neutral" cx="505.6" cy="272.9" r="2.0" fill="#c59d2a" fill-opacity="0.55" stroke="#f9f6ef" stroke-width="2" />
<circle class="mast-history-dot" data-trend="neutral" cx="505.6" cy="272.9" r="2.0" fill="#c59d2a" fill-opacity="0.55" stroke="#f9f6ef" stroke-width="2" />
<circle class="mast-history-dot" data-trend="neutral" cx="505.5" cy="272.9" r="2.0" fill="#c59d2a" fill-opacity="0.56" stroke="#f9f6ef" stroke-width="2" />
<circle class="mast-history-dot" data-trend="neutral" cx="505.5" cy="272.9" r="2.0" fill="#c59d2a" fill-opacity="0.57" stroke="#f9f6ef" stroke-width="2" />
<circle class="mast-history-dot" data-trend="neutral" cx="505.5" cy="272.8" r="2.0" fill="#c59d2a" fill-opacity="0.57" stroke="#f9f6ef" stroke-width="2" />
<circle class="mast-history-dot" data-trend="neutral" cx="506.2" cy="273.0" r="2.0" fill="#c59d2a" fill-opacity="0.58" stroke="#f9f6ef" stroke-width="2" />
<circle class="mast-history-dot" data-trend="neutral" cx="507.0" cy="273.1" r="2.0" fill="#c59d2a" fill-opacity="0.59" stroke="#f9f6ef" stroke-width="2" />
<circle class="mast-history-dot" data-trend="neutral" cx="507.3" cy="273.1" r="2.0" fill="#c59d2a" fill-opacity="0.59" stroke="#f9f6ef" stroke-width="2" />
<circle class="mast-history-dot" data-trend="neutral" cx="507.5" cy="273.1" r="2.0" fill="#c59d2a" fill-opacity="0.60" stroke="#f9f6ef" stroke-width="2" />
<circle class="mast-history-dot" data-trend="neutral" cx="507.7" cy="273.2" r="2.0" fill="#c59d2a" fill-opacity="0.61" stroke="#f9f6ef" stroke-width="2" />
<circle class="mast-history-dot" data-trend="neutral" cx="508.0" cy="273.2" r="2.0" fill="#c59d2a" fill-opacity="0.61" stroke="#f9f6ef" stroke-width="2" />
<circle class="mast-history-dot" data-trend="neutral" cx="508.2" cy="273.2" r="2.0" fill="#c59d2a" fill-opacity="0.62" stroke="#f9f6ef" stroke-width="2" />
<circle class="mast-history-dot" data-trend="neutral" cx="508.4" cy="273.3" r="2.0" fill="#c59d2a" fill-opacity="0.63" stroke="#f9f6ef" stroke-width="2" />
<circle class="mast-history-dot" data-trend="neutral" cx="508.4" cy="273.3" r="2.0" fill="#c59d2a" fill-opacity="0.63" stroke="#f9f6ef" stroke-width="2" />
<circle class="mast-history-dot" data-trend="neutral" cx="508.5" cy="273.3" r="2.0" fill="#c59d2a" fill-opacity="0.64" stroke="#f9f6ef" stroke-width="2" />
<circle class="mast-history-dot" data-trend="neutral" cx="508.9" cy="273.3" r="2.0" fill="#c59d2a" fill-opacity="0.65" stroke="#f9f6ef" stroke-width="2" />
<circle class="mast-history-dot" data-trend="neutral" cx="508.8" cy="273.3" r="2.0" fill="#c59d2a" fill-opacity="0.65" stroke="#f9f6ef" stroke-width="2" />
<circle class="mast-history-dot" data-trend="neutral" cx="508.8" cy="273.3" r="2.0" fill="#c59d2a" fill-opacity="0.66" stroke="#f9f6ef" stroke-width="2" />
<circle class="mast-history-dot" data-trend="neutral" cx="508.8" cy="273.3" r="2.0" fill="#c59d2a" fill-opacity="0.67" stroke="#f9f6ef" stroke-width="2" />
<circle class="mast-history-dot" data-trend="neutral" cx="508.9" cy="273.3" r="2.0" fill="#c59d2a" fill-opacity="0.67" stroke="#f9f6ef" stroke-width="2" />
<circle class="mast-history-dot" data-trend="neutral" cx="509.0" cy="273.4" r="2.0" fill="#c59d2a" fill-opacity="0.68" stroke="#f9f6ef" stroke-width="2" />
<circle class="mast-history-dot" data-trend="neutral" cx="509.0" cy="273.4" r="2.0" fill="#c59d2a" fill-opacity="0.69" stroke="#f9f6ef" stroke-width="2" />
<circle class="mast-history-dot" data-trend="neutral" cx="509.1" cy="273.4" r="2.0" fill="#c59d2a" fill-opacity="0.69" stroke="#f9f6ef" stroke-width="2" />
<circle class="mast-history-dot" data-trend="neutral" cx="509.1" cy="273.4" r="2.0" fill="#c59d2a" fill-opacity="0.70" stroke="#f9f6ef" stroke-width="2" />
<circle class="mast-history-dot" data-trend="neutral" cx="509.1" cy="273.4" r="2.0" fill="#c59d2a" fill-opacity="0.71" stroke="#f9f6ef" stroke-width="2" />
<circle class="mast-history-dot" data-trend="neutral" cx="509.1" cy="273.4" r="2.0" fill="#c59d2a" fill-opacity="0.71" stroke="#f9f6ef" stroke-width="2" />
<circle class="mast-history-dot" data-trend="neutral" cx="508.8" cy="273.3" r="2.0" fill="#c59d2a" fill-opacity="0.72" stroke="#f9f6ef" stroke-width="2" />
<circle class="mast-history-dot" data-trend="neutral" cx="508.8" cy="273.3" r="2.0" fill="#c59d2a" fill-opacity="0.73" stroke="#f9f6ef" stroke-width="2" />
<circle class="mast-history-dot" data-trend="neutral" cx="508.2" cy="273.2" r="2.0" fill="#c59d2a" fill-opacity="0.73" stroke="#f9f6ef" stroke-width="2" />
<circle class="mast-history-dot" data-trend="neutral" cx="507.0" cy="273.1" r="2.0" fill="#c59d2a" fill-opacity="0.74" stroke="#f9f6ef" stroke-width="2" />
<circle class="mast-history-dot" data-trend="neutral" cx="505.7" cy="272.9" r="2.0" fill="#c59d2a" fill-opacity="0.75" stroke="#f9f6ef" stroke-width="2" />
<circle class="mast-history-dot" data-trend="neutral" cx="504.6" cy="272.7" r="2.0" fill="#c59d2a" fill-opacity="0.75" stroke="#f9f6ef" stroke-width="2" />
<circle class="mast-history-dot" data-trend="neutral" cx="504.6" cy="272.7" r="2.0" fill="#c59d2a" fill-opacity="0.76" stroke="#f9f6ef" stroke-width="2" />
<circle class="mast-history-dot" data-trend="neutral" cx="503.8" cy="272.6" r="2.0" fill="#c59d2a" fill-opacity="0.77" stroke="#f9f6ef" stroke-width="2" />
<circle class="mast-history-dot" data-trend="neutral" cx="501.7" cy="272.3" r="2.0" fill="#c59d2a" fill-opacity="0.77" stroke="#f9f6ef" stroke-width="2" />
<circle class="mast-history-dot" data-trend="neutral" cx="498.7" cy="271.9" r="2.0" fill="#c59d2a" fill-opacity="0.78" stroke="#f9f6ef" stroke-width="2" />
<circle class="mast-history-dot" data-trend="neutral" cx="496.3" cy="271.5" r="2.0" fill="#c59d2a" fill-opacity="0.79" stroke="#f9f6ef" stroke-width="2" />
<circle class="mast-history-dot" data-trend="neutral" cx="494.5" cy="271.2" r="2.0" fill="#c59d2a" fill-opacity="0.79" stroke="#f9f6ef" stroke-width="2" />
<circle class="mast-history-dot" data-trend="neutral" cx="493.0" cy="271.0" r="2.0" fill="#c59d2a" fill-opacity="0.80" stroke="#f9f6ef" stroke-width="2" />
<circle class="mast-history-dot" data-trend="neutral" cx="491.9" cy="270.9" r="2.0" fill="#c59d2a" fill-opacity="0.81" stroke="#f9f6ef" stroke-width="2" />
<circle class="mast-history-dot" data-trend="neutral" cx="490.9" cy="270.7" r="2.0" fill="#c59d2a" fill-opacity="0.81" stroke="#f9f6ef" stroke-width="2" />
<circle class="mast-history-dot" data-trend="neutral" cx="490.2" cy="270.6" r="2.0" fill="#c59d2a" fill-opacity="0.82" stroke="#f9f6ef" stroke-width="2" />
<circle class="mast-history-dot" data-trend="neutral" cx="490.2" cy="270.6" r="2.0" fill="#c59d2a" fill-opacity="0.83" stroke="#f9f6ef" stroke-width="2" />
<circle class="mast-history-dot" data-trend="neutral" cx="489.6" cy="173.3" r="2.0" fill="#c59d2a" fill-opacity="0.83" stroke="#f9f6ef" stroke-width="2" />
<circle class="mast-history-dot" data-trend="neutral" cx="487.7" cy="173.3" r="2.0" fill="#c59d2a" fill-opacity="0.84" stroke="#f9f6ef" stroke-width="2" />
<circle class="mast-history-dot" data-trend="neutral" cx="484.8" cy="173.3" r="2.0" fill="#c59d2a" fill-opacity="0.85" stroke="#f9f6ef" stroke-width="2" />
<circle class="mast-history-dot" data-trend="neutral" cx="482.5" cy="173.3" r="2.0" fill="#c59d2a" fill-opacity="0.85" stroke="#f9f6ef" stroke-width="2" />
<circle class="mast-history-dot" data-trend="neutral" cx="480.5" cy="173.3" r="2.0" fill="#c59d2a" fill-opacity="0.86" stroke="#f9f6ef" stroke-width="2" />
<circle class="mast-history-dot" data-trend="neutral" cx="478.8" cy="173.3" r="2.0" fill="#c59d2a" fill-opacity="0.87" stroke="#f9f6ef" stroke-width="2" />
<circle class="mast-history-dot" data-trend="neutral" cx="477.6" cy="173.3" r="2.0" fill="#c59d2a" fill-opacity="0.87" stroke="#f9f6ef" stroke-width="2" />
<circle class="mast-history-dot" data-trend="neutral" cx="476.6" cy="173.3" r="2.0" fill="#c59d2a" fill-opacity="0.88" stroke="#f9f6ef" stroke-width="2" />
<circle class="mast-history-dot" data-trend="neutral" cx="475.5" cy="173.3" r="6.0" fill="#c59d2a" fill-opacity="0.89" stroke="#f9f6ef" stroke-width="2" />
<circle class="mast-history-dot" data-trend="neutral" cx="474.9" cy="173.3" r="6.0" fill="#c59d2a" fill-opacity="0.89" stroke="#f9f6ef" stroke-width="2" />
<circle class="mast-history-dot" data-trend="neutral" cx="474.4" cy="173.3" r="6.0" fill="#c59d2a" fill-opacity="0.90" stroke="#f9f6ef" stroke-width="2" />
<g id="mast-history">
<polyline class="mast-history-path" points="508.1,273.2 505.6,272.9 505.6,272.9 505.5,272.9 505.5,272.9 505.5,272.8 506.2,273.0 507.0,273.1 507.3,273.1 507.5,273.1 507.7,273.2 508.0,273.2 508.2,273.2 508.4,273.3 508.4,273.3 508.5,273.3 508.9,273.3 508.8,273.3 508.8,273.3 508.8,273.3 508.9,273.3 509.0,273.4 509.0,273.4 509.1,273.4 509.1,273.4 509.1,273.4 509.1,273.4 508.8,273.3 508.8,273.3 508.2,273.2 507.0,273.1 505.7,272.9 504.6,272.7 504.6,272.7 503.8,272.6 501.7,272.3 498.7,271.9 496.3,271.5 494.5,271.2 493.0,271.0 491.9,270.9 490.9,270.7 490.2,270.6 490.2,270.6 489.6,173.3 487.7,173.3 484.8,173.3 482.5,173.3 480.5,173.3 478.8,173.3 477.6,173.3 476.6,173.3 475.5,173.3 474.9,173.3 474.4,173.3" fill="none" stroke="#b7aea0" stroke-width="2.4" stroke-linecap="round" stroke-linejoin="round" opacity="0.85" />
</g>
<circle class="mast-camera-dot" data-trend="neutral" cx="474.4" cy="173.3" r="8.0" fill="#c59d2a" stroke="#233843" stroke-width="2.2" />
<text x="474.4" y="159.3" text-anchor="middle" font-size="14" font-weight="600" fill="#233843">y=-2mm</text>
</svg>