<svg xmlns="http://www.w3.org/2000/svg" width="980" height="360" viewBox="0 0 980 360">
<rect width="100%" height="100%" fill="#f4efe4" />
<rect x="22" y="22" width="936" height="316" rx="24" fill="#f9f6ef" stroke="#d7d1c4" stroke-width="1.5" />
<text x="490.0" y="52.0" text-anchor="middle" font-size="28" font-weight="900" fill="#233843">Mast View</text>
<rect x="170.0" y="148.0" width="92.0" height="92.0" fill="#1f4b8f" stroke="#122d57" stroke-width="3" rx="12.0" />
<text x="216.0" y="134.0" text-anchor="middle" font-size="28" font-weight="600" fill="#1d2830">Supply</text>
<line class="mast-zero-guide" x1="86.0" y1="194.0" x2="162.0" y2="194.0" stroke="#c8c2b5" stroke-width="2.6" stroke-linecap="round" />
<text x="76.0" y="199.0" text-anchor="end" font-size="12" font-weight="700" fill="#5d676e">0mm</text>
<text x="76.0" y="95.5" text-anchor="end" font-size="11" font-weight="600" fill="#5d676e">+20mm</text>
<text x="76.0" y="300.5" text-anchor="end" font-size="11" font-weight="600" fill="#5d676e">-20mm</text>
<g id="mast-history">
<line class="mast-history-lead" x1="264.0" y1="169.2" x2="272.0" y2="169.2" stroke="#0b3d91" stroke-width="1.4" stroke-linecap="round" opacity="0.95" />
<polyline class="mast-history-trace" points="272.0,169.2 282.1,170.2 292.3,168.2 302.4,170.1 312.5,164.2 322.7,166.9 332.8,161.9 342.9,162.7 353.1,165.5 363.2,164.8 373.4,166.1 383.5,167.7 393.6,166.7 403.8,168.4 413.9,163.8 424.0,165.0 434.2,169.0 444.3,167.9 454.4,169.8 464.6,172.0 474.7,171.2 484.8,170.0 495.0,172.3 505.1,168.0 515.3,171.4 525.4,172.2 535.5,170.6 545.7,172.9 555.8,169.5 565.9,169.9 576.1,172.2 586.2,167.7 596.3,167.0 606.5,164.8 616.6,166.1 626.7,167.7 636.9,159.1 647.0,157.5 657.2,157.6 667.3,157.7 677.4,158.0 687.6,157.9 697.7,158.1 707.8,158.2 718.0,158.8 728.1,158.6 738.2,158.9 748.4,159.2 758.5,160.3 768.6,160.0 778.8,160.5 788.9,161.1 799.1,159.3 809.2,158.3 819.3,158.5 829.5,158.7 839.6,159.5 849.7,159.3 859.9,159.7 870.0,160.1" fill="none" stroke="#9db4da" stroke-width="1.4" stroke-linecap="round" stroke-linejoin="round" opacity="0.55" />
<line class="mast-history-segment" data-recency="older" x1="870.0" y1="160.1" x2="859.9" y2="159.7" stroke="#d3d7dd" stroke-width="1" stroke-linecap="round" />
<line class="mast-history-segment" data-recency="older" x1="859.9" y1="159.7" x2="849.7" y2="159.3" stroke="#d3d7dd" stroke-width="1" stroke-linecap="round" />
<line class="mast-history-segment" data-recency="older" x1="849.7" y1="159.3" x2="839.6" y2="159.5" stroke="#d3d7dd" stroke-width="1" stroke-linecap="round" />
<line class="mast-history-segment" data-recency="older" x1="839.6" y1="159.5" x2="829.5" y2="158.7" stroke="#d3d7dd" stroke-width="1" stroke-linecap="round" />
<line class="mast-history-segment" data-recency="older" x1="829.5" y1="158.7" x2="819.3" y2="158.5" stroke="#d3d7dd" stroke-width="1" stroke-linecap="round" />
<line class="mast-history-segment" data-recency="older" x1="819.3" y1="158.5" x2="809.2" y2="158.3" stroke="#d3d7dd" stroke-width="1" stroke-linecap="round" />
<line class="mast-history-segment" data-recency="older" x1="809.2" y1="158.3" x2="799.1" y2="159.3" stroke="#d3d7dd" stroke-width="1" stroke-linecap="round" />
<line class="mast-history-segment" data-recency="older" x1="799.1" y1="159.3" x2="788.9" y2="161.1" stroke="#d3d7dd" stroke-width="1" stroke-linecap="round" />
<line class="mast-history-segment" data-recency="older" x1="788.9" y1="161.1" x2="778.8" y2="160.5" stroke="#d3d7dd" stroke-width="1" stroke-linecap="round" />
<line class="mast-history-segment" data-recency="older" x1="778.8" y1="160.5" x2="768.6" y2="160.0" stroke="#d3d7dd" stroke-width="1" stroke-linecap="round" />
<line class="mast-history-segment" data-recency="older" x1="768.6" y1="160.0" x2="758.5" y2="160.3" stroke="#d3d7dd" stroke-width="1" stroke-linecap="round" />
<line class="mast-history-segment" data-recency="older" x1="758.5" y1="160.3" x2="748.4" y2="159.2" stroke="#d3d7dd" stroke-width="1" stroke-linecap="round" />
<line class="mast-history-segment" data-recency="older" x1="748.4" y1="159.2" x2="738.2" y2="158.9" stroke="#d3d7dd" stroke-width="1" stroke-linecap="round" />
<line class="mast-history-segment" data-recency="older" x1="738.2" y1="158.9" x2="728.1" y2="158.6" stroke="#d3d7dd" stroke-width="1" stroke-linecap="round" />
<line class="mast-history-segment" data-recency="older" x1="728.1" y1="158.6" x2="718.0" y2="158.8" stroke="#d3d7dd" stroke-width="1" stroke-linecap="round" />
<line class="mast-history-segment" data-recency="older" x1="718.0" y1="158.8" x2="707.8" y2="158.2" stroke="#d3d7dd" stroke-width="1" stroke-linecap="round" />
<line class="mast-history-segment" data-recency="older" x1="707.8" y1="158.2" x2="697.7" y2="158.1" stroke="#d3d7dd" stroke-width="1" stroke-linecap="round" />
<line class="mast-history-segment" data-recency="older" x1="697.7" y1="158.1" x2="687.6" y2="157.9" stroke="#d3d7dd" stroke-width="1" stroke-linecap="round" />
<line class="mast-history-segment" data-recency="older" x1="687.6" y1="157.9" x2="677.4" y2="158.0" stroke="#d3d7dd" stroke-width="1" stroke-linecap="round" />
<line class="mast-history-segment" data-recency="older" x1="677.4" y1="158.0" x2="667.3" y2="157.7" stroke="#d3d7dd" stroke-width="1" stroke-linecap="round" />
<line class="mast-history-segment" data-recency="older" x1="667.3" y1="157.7" x2="657.2" y2="157.6" stroke="#d3d7dd" stroke-width="1" stroke-linecap="round" />
<line class="mast-history-segment" data-recency="older" x1="657.2" y1="157.6" x2="647.0" y2="157.5" stroke="#d3d7dd" stroke-width="1" stroke-linecap="round" />
<line class="mast-history-segment" data-recency="older" x1="647.0" y1="157.5" x2="636.9" y2="159.1" stroke="#d3d7dd" stroke-width="1" stroke-linecap="round" />
<line class="mast-history-segment" data-recency="older" x1="636.9" y1="159.1" x2="626.7" y2="167.7" stroke="#d3d7dd" stroke-width="1" stroke-linecap="round" />
<line class="mast-history-segment" data-recency="older" x1="626.7" y1="167.7" x2="616.6" y2="166.1" stroke="#d3d7dd" stroke-width="1" stroke-linecap="round" />
<line class="mast-history-segment" data-recency="older" x1="616.6" y1="166.1" x2="606.5" y2="164.8" stroke="#d3d7dd" stroke-width="1" stroke-linecap="round" />
<line class="mast-history-segment" data-recency="older" x1="606.5" y1="164.8" x2="596.3" y2="167.0" stroke="#d3d7dd" stroke-width="1" stroke-linecap="round" />
<line class="mast-history-segment" data-recency="older" x1="596.3" y1="167.0" x2="586.2" y2="167.7" stroke="#d3d7dd" stroke-width="1" stroke-linecap="round" />
<line class="mast-history-segment" data-recency="older" x1="586.2" y1="167.7" x2="576.1" y2="172.2" stroke="#d3d7dd" stroke-width="1" stroke-linecap="round" />
<line class="mast-history-segment" data-recency="older" x1="576.1" y1="172.2" x2="565.9" y2="169.9" stroke="#d3d7dd" stroke-width="1" stroke-linecap="round" />
<line class="mast-history-segment" data-recency="older" x1="565.9" y1="169.9" x2="555.8" y2="169.5" stroke="#d3d7dd" stroke-width="1" stroke-linecap="round" />
<line class="mast-history-segment" data-recency="older" x1="555.8" y1="169.5" x2="545.7" y2="172.9" stroke="#d3d7dd" stroke-width="1" stroke-linecap="round" />
<line class="mast-history-segment" data-recency="older" x1="545.7" y1="172.9" x2="535.5" y2="170.6" stroke="#d3d7dd" stroke-width="1" stroke-linecap="round" />
<line class="mast-history-segment" data-recency="older" x1="535.5" y1="170.6" x2="525.4" y2="172.2" stroke="#d3d7dd" stroke-width="1" stroke-linecap="round" />
<line class="mast-history-segment" data-recency="older" x1="525.4" y1="172.2" x2="515.3" y2="171.4" stroke="#d3d7dd" stroke-width="1" stroke-linecap="round" />
<line class="mast-history-segment" data-recency="older" x1="515.3" y1="171.4" x2="505.1" y2="168.0" stroke="#d3d7dd" stroke-width="1" stroke-linecap="round" />
<line class="mast-history-segment" data-recency="older" x1="505.1" y1="168.0" x2="495.0" y2="172.3" stroke="#d3d7dd" stroke-width="1" stroke-linecap="round" />
<line class="mast-history-segment" data-recency="older" x1="495.0" y1="172.3" x2="484.8" y2="170.0" stroke="#d3d7dd" stroke-width="1" stroke-linecap="round" />
<line class="mast-history-segment" data-recency="older" x1="484.8" y1="170.0" x2="474.7" y2="171.2" stroke="#d3d7dd" stroke-width="1" stroke-linecap="round" />
<line class="mast-history-segment" data-recency="older" x1="474.7" y1="171.2" x2="464.6" y2="172.0" stroke="#d3d7dd" stroke-width="1" stroke-linecap="round" />
<line class="mast-history-segment" data-recency="older" x1="464.6" y1="172.0" x2="454.4" y2="169.8" stroke="#d3d7dd" stroke-width="1" stroke-linecap="round" />
<line class="mast-history-segment" data-recency="older" x1="454.4" y1="169.8" x2="444.3" y2="167.9" stroke="#d3d7dd" stroke-width="1" stroke-linecap="round" />
<line class="mast-history-segment" data-recency="older" x1="444.3" y1="167.9" x2="434.2" y2="169.0" stroke="#d3d7dd" stroke-width="1" stroke-linecap="round" />
<line class="mast-history-segment" data-recency="older" x1="434.2" y1="169.0" x2="424.0" y2="165.0" stroke="#d3d7dd" stroke-width="1" stroke-linecap="round" />
<line class="mast-history-segment" data-recency="older" x1="424.0" y1="165.0" x2="413.9" y2="163.8" stroke="#d3d7dd" stroke-width="1" stroke-linecap="round" />
<line class="mast-history-segment" data-recency="older" x1="413.9" y1="163.8" x2="403.8" y2="168.4" stroke="#d3d7dd" stroke-width="1" stroke-linecap="round" />
<line class="mast-history-segment" data-recency="older" x1="403.8" y1="168.4" x2="393.6" y2="166.7" stroke="#d3d7dd" stroke-width="1" stroke-linecap="round" />
<line class="mast-history-segment" data-recency="older" x1="393.6" y1="166.7" x2="383.5" y2="167.7" stroke="#d3d7dd" stroke-width="1" stroke-linecap="round" />
<line class="mast-history-segment" data-recency="older" x1="383.5" y1="167.7" x2="373.4" y2="166.1" stroke="#d3d7dd" stroke-width="1" stroke-linecap="round" />
<line class="mast-history-segment" data-recency="older" x1="373.4" y1="166.1" x2="363.2" y2="164.8" stroke="#d3d7dd" stroke-width="1" stroke-linecap="round" />
<line class="mast-history-segment" data-recency="older" x1="363.2" y1="164.8" x2="353.1" y2="165.5" stroke="#d3d7dd" stroke-width="1" stroke-linecap="round" />
<line class="mast-history-segment" data-recency="older" x1="353.1" y1="165.5" x2="342.9" y2="162.7" stroke="#d3d7dd" stroke-width="1" stroke-linecap="round" />
<line class="mast-history-segment" data-recency="older" x1="342.9" y1="162.7" x2="332.8" y2="161.9" stroke="#d3d7dd" stroke-width="1" stroke-linecap="round" />
<line class="mast-history-segment" data-recency="older" x1="332.8" y1="161.9" x2="322.7" y2="166.9" stroke="#d3d7dd" stroke-width="1" stroke-linecap="round" />
<line class="mast-history-segment" data-recency="older" x1="322.7" y1="166.9" x2="312.5" y2="164.2" stroke="#d3d7dd" stroke-width="1" stroke-linecap="round" />
<line class="mast-history-segment" data-recency="older" x1="312.5" y1="164.2" x2="302.4" y2="170.1" stroke="#d3d7dd" stroke-width="1" stroke-linecap="round" />
<line class="mast-history-segment" data-recency="n-2" x1="302.4" y1="170.1" x2="292.3" y2="168.2" stroke="#63d7ff" stroke-width="1" stroke-linecap="round" />
<line class="mast-history-segment" data-recency="n-1" x1="292.3" y1="168.2" x2="282.1" y2="170.2" stroke="#2563eb" stroke-width="1" stroke-linecap="round" />
<line class="mast-history-segment" data-recency="current" x1="282.1" y1="170.2" x2="272.0" y2="169.2" stroke="#0b3d91" stroke-width="1" stroke-linecap="round" />
</g>
</svg>