<svg xmlns="http://www.w3.org/2000/svg" width="980" height="360" viewBox="0 0 980 360">
<rect width="100%" height="100%" fill="#f4efe4" />
<rect x="22" y="22" width="936" height="316" rx="24" fill="#f9f6ef" stroke="#d7d1c4" stroke-width="1.5" />
<text x="490.0" y="52.0" text-anchor="middle" font-size="28" font-weight="900" fill="#233843">Mast View</text>
<rect x="170.0" y="148.0" width="92.0" height="92.0" fill="#1f4b8f" stroke="#122d57" stroke-width="3" rx="12" />
<text x="216.0" y="134.0" text-anchor="middle" font-size="28" font-weight="600" fill="#1d2830">Supply</text>
<line x1="86.0" y1="194.0" x2="894.0" y2="194.0" stroke="#c8c2b5" stroke-width="2.6" stroke-linecap="round" />
<text x="76.0" y="199.0" text-anchor="end" font-size="12" font-weight="700" fill="#5d676e">0mm</text>
<text x="76.0" y="95.5" text-anchor="end" font-size="11" font-weight="600" fill="#5d676e">+20mm</text>
<text x="76.0" y="300.5" text-anchor="end" font-size="11" font-weight="600" fill="#5d676e">-20mm</text>
<g id="mast-history">
<polyline class="mast-history-path" points="490.0,206.5 490.0,206.5 490.0,206.5 490.0,206.5 490.0,206.5 490.0,206.5 490.0,206.5 490.0,206.5 490.0,206.7 490.0,206.8 490.0,206.9 490.0,207.0 490.0,207.1 490.0,207.1 490.0,208.2 490.0,210.2 490.0,211.6 490.0,212.6 490.0,213.2 490.0,213.4 490.0,213.1 490.0,212.9 490.0,212.8 490.0,212.7" fill="none" stroke="#b7aea0" stroke-width="1" stroke-linecap="round" stroke-linejoin="round" opacity="0.85" />
</g>
</svg>