<svg xmlns="http://www.w3.org/2000/svg" width="980" height="360" viewBox="0 0 980 360">
<rect width="100%" height="100%" fill="#f4efe4" />
<rect x="22" y="22" width="936" height="316" rx="24" fill="#f9f6ef" stroke="#d7d1c4" stroke-width="1.5" />
<text x="490.0" y="52.0" text-anchor="middle" font-size="28" font-weight="900" fill="#233843">Mast View</text>
<rect x="170.0" y="148.0" width="92.0" height="92.0" fill="#1f4b8f" stroke="#122d57" stroke-width="3" rx="12.0" />
<text x="216.0" y="134.0" text-anchor="middle" font-size="28" font-weight="600" fill="#1d2830">Supply</text>
<line class="mast-zero-guide" x1="86.0" y1="194.0" x2="162.0" y2="194.0" stroke="#c8c2b5" stroke-width="2.6" stroke-linecap="round" />
<text x="76.0" y="199.0" text-anchor="end" font-size="12" font-weight="700" fill="#5d676e">0mm</text>
<text x="76.0" y="95.5" text-anchor="end" font-size="11" font-weight="600" fill="#5d676e">+20mm</text>
<text x="76.0" y="300.5" text-anchor="end" font-size="11" font-weight="600" fill="#5d676e">-20mm</text>
<g id="mast-history">
<line class="mast-history-lead" x1="264.0" y1="169.5" x2="272.0" y2="169.5" stroke="#0b3d91" stroke-width="1.4" stroke-linecap="round" opacity="0.95" />
<polyline class="mast-history-trace" points="272.0,169.5 285.3,169.4 298.6,169.4 311.9,169.4 325.2,169.4 338.4,169.3 351.7,169.3 365.0,169.3 378.3,169.3 391.6,169.3 404.9,169.3 418.2,169.3 431.5,169.3 444.8,169.3 458.0,169.2 471.3,169.3 484.6,169.5 497.9,169.7 511.2,169.7 524.5,169.7 537.8,169.8 551.1,169.8 564.4,169.8 577.6,169.8 590.9,169.7 604.2,169.7 617.5,169.7 630.8,169.7 644.1,169.7 657.4,169.6 670.7,169.6 684.0,169.6 697.2,169.6 710.5,169.5 723.8,169.5 737.1,169.5 750.4,169.4 763.7,169.2 777.0,169.2 790.3,169.1 803.6,169.1 816.8,169.1 830.1,169.1 843.4,169.1 856.7,169.1 870.0,194.0" fill="none" stroke="#9db4da" stroke-width="1.4" stroke-linecap="round" stroke-linejoin="round" opacity="0.55" />
<line class="mast-history-segment" data-recency="older" x1="870.0" y1="194.0" x2="856.7" y2="169.1" stroke="#d3d7dd" stroke-width="1" stroke-linecap="round" />
<line class="mast-history-segment" data-recency="older" x1="856.7" y1="169.1" x2="843.4" y2="169.1" stroke="#d3d7dd" stroke-width="1" stroke-linecap="round" />
<line class="mast-history-segment" data-recency="older" x1="843.4" y1="169.1" x2="830.1" y2="169.1" stroke="#d3d7dd" stroke-width="1" stroke-linecap="round" />
<line class="mast-history-segment" data-recency="older" x1="830.1" y1="169.1" x2="816.8" y2="169.1" stroke="#d3d7dd" stroke-width="1" stroke-linecap="round" />
<line class="mast-history-segment" data-recency="older" x1="816.8" y1="169.1" x2="803.6" y2="169.1" stroke="#d3d7dd" stroke-width="1" stroke-linecap="round" />
<line class="mast-history-segment" data-recency="older" x1="803.6" y1="169.1" x2="790.3" y2="169.1" stroke="#d3d7dd" stroke-width="1" stroke-linecap="round" />
<line class="mast-history-segment" data-recency="older" x1="790.3" y1="169.1" x2="777.0" y2="169.2" stroke="#d3d7dd" stroke-width="1" stroke-linecap="round" />
<line class="mast-history-segment" data-recency="older" x1="777.0" y1="169.2" x2="763.7" y2="169.2" stroke="#d3d7dd" stroke-width="1" stroke-linecap="round" />
<line class="mast-history-segment" data-recency="older" x1="763.7" y1="169.2" x2="750.4" y2="169.4" stroke="#d3d7dd" stroke-width="1" stroke-linecap="round" />
<line class="mast-history-segment" data-recency="older" x1="750.4" y1="169.4" x2="737.1" y2="169.5" stroke="#d3d7dd" stroke-width="1" stroke-linecap="round" />
<line class="mast-history-segment" data-recency="older" x1="737.1" y1="169.5" x2="723.8" y2="169.5" stroke="#d3d7dd" stroke-width="1" stroke-linecap="round" />
<line class="mast-history-segment" data-recency="older" x1="723.8" y1="169.5" x2="710.5" y2="169.5" stroke="#d3d7dd" stroke-width="1" stroke-linecap="round" />
<line class="mast-history-segment" data-recency="older" x1="710.5" y1="169.5" x2="697.2" y2="169.6" stroke="#d3d7dd" stroke-width="1" stroke-linecap="round" />
<line class="mast-history-segment" data-recency="older" x1="697.2" y1="169.6" x2="684.0" y2="169.6" stroke="#d3d7dd" stroke-width="1" stroke-linecap="round" />
<line class="mast-history-segment" data-recency="older" x1="684.0" y1="169.6" x2="670.7" y2="169.6" stroke="#d3d7dd" stroke-width="1" stroke-linecap="round" />
<line class="mast-history-segment" data-recency="older" x1="670.7" y1="169.6" x2="657.4" y2="169.6" stroke="#d3d7dd" stroke-width="1" stroke-linecap="round" />
<line class="mast-history-segment" data-recency="older" x1="657.4" y1="169.6" x2="644.1" y2="169.7" stroke="#d3d7dd" stroke-width="1" stroke-linecap="round" />
<line class="mast-history-segment" data-recency="older" x1="644.1" y1="169.7" x2="630.8" y2="169.7" stroke="#d3d7dd" stroke-width="1" stroke-linecap="round" />
<line class="mast-history-segment" data-recency="older" x1="630.8" y1="169.7" x2="617.5" y2="169.7" stroke="#d3d7dd" stroke-width="1" stroke-linecap="round" />
<line class="mast-history-segment" data-recency="older" x1="617.5" y1="169.7" x2="604.2" y2="169.7" stroke="#d3d7dd" stroke-width="1" stroke-linecap="round" />
<line class="mast-history-segment" data-recency="older" x1="604.2" y1="169.7" x2="590.9" y2="169.7" stroke="#d3d7dd" stroke-width="1" stroke-linecap="round" />
<line class="mast-history-segment" data-recency="older" x1="590.9" y1="169.7" x2="577.6" y2="169.8" stroke="#d3d7dd" stroke-width="1" stroke-linecap="round" />
<line class="mast-history-segment" data-recency="older" x1="577.6" y1="169.8" x2="564.4" y2="169.8" stroke="#d3d7dd" stroke-width="1" stroke-linecap="round" />
<line class="mast-history-segment" data-recency="older" x1="564.4" y1="169.8" x2="551.1" y2="169.8" stroke="#d3d7dd" stroke-width="1" stroke-linecap="round" />
<line class="mast-history-segment" data-recency="older" x1="551.1" y1="169.8" x2="537.8" y2="169.8" stroke="#d3d7dd" stroke-width="1" stroke-linecap="round" />
<line class="mast-history-segment" data-recency="older" x1="537.8" y1="169.8" x2="524.5" y2="169.7" stroke="#d3d7dd" stroke-width="1" stroke-linecap="round" />
<line class="mast-history-segment" data-recency="older" x1="524.5" y1="169.7" x2="511.2" y2="169.7" stroke="#d3d7dd" stroke-width="1" stroke-linecap="round" />
<line class="mast-history-segment" data-recency="older" x1="511.2" y1="169.7" x2="497.9" y2="169.7" stroke="#d3d7dd" stroke-width="1" stroke-linecap="round" />
<line class="mast-history-segment" data-recency="older" x1="497.9" y1="169.7" x2="484.6" y2="169.5" stroke="#d3d7dd" stroke-width="1" stroke-linecap="round" />
<line class="mast-history-segment" data-recency="older" x1="484.6" y1="169.5" x2="471.3" y2="169.3" stroke="#d3d7dd" stroke-width="1" stroke-linecap="round" />
<line class="mast-history-segment" data-recency="older" x1="471.3" y1="169.3" x2="458.0" y2="169.2" stroke="#d3d7dd" stroke-width="1" stroke-linecap="round" />
<line class="mast-history-segment" data-recency="older" x1="458.0" y1="169.2" x2="444.8" y2="169.3" stroke="#d3d7dd" stroke-width="1" stroke-linecap="round" />
<line class="mast-history-segment" data-recency="older" x1="444.8" y1="169.3" x2="431.5" y2="169.3" stroke="#d3d7dd" stroke-width="1" stroke-linecap="round" />
<line class="mast-history-segment" data-recency="older" x1="431.5" y1="169.3" x2="418.2" y2="169.3" stroke="#d3d7dd" stroke-width="1" stroke-linecap="round" />
<line class="mast-history-segment" data-recency="older" x1="418.2" y1="169.3" x2="404.9" y2="169.3" stroke="#d3d7dd" stroke-width="1" stroke-linecap="round" />
<line class="mast-history-segment" data-recency="older" x1="404.9" y1="169.3" x2="391.6" y2="169.3" stroke="#d3d7dd" stroke-width="1" stroke-linecap="round" />
<line class="mast-history-segment" data-recency="older" x1="391.6" y1="169.3" x2="378.3" y2="169.3" stroke="#d3d7dd" stroke-width="1" stroke-linecap="round" />
<line class="mast-history-segment" data-recency="older" x1="378.3" y1="169.3" x2="365.0" y2="169.3" stroke="#d3d7dd" stroke-width="1" stroke-linecap="round" />
<line class="mast-history-segment" data-recency="older" x1="365.0" y1="169.3" x2="351.7" y2="169.3" stroke="#d3d7dd" stroke-width="1" stroke-linecap="round" />
<line class="mast-history-segment" data-recency="older" x1="351.7" y1="169.3" x2="338.4" y2="169.3" stroke="#d3d7dd" stroke-width="1" stroke-linecap="round" />
<line class="mast-history-segment" data-recency="older" x1="338.4" y1="169.3" x2="325.2" y2="169.4" stroke="#d3d7dd" stroke-width="1" stroke-linecap="round" />
<line class="mast-history-segment" data-recency="older" x1="325.2" y1="169.4" x2="311.9" y2="169.4" stroke="#d3d7dd" stroke-width="1" stroke-linecap="round" />
<line class="mast-history-segment" data-recency="n-2" x1="311.9" y1="169.4" x2="298.6" y2="169.4" stroke="#63d7ff" stroke-width="1" stroke-linecap="round" />
<line class="mast-history-segment" data-recency="n-1" x1="298.6" y1="169.4" x2="285.3" y2="169.4" stroke="#2563eb" stroke-width="1" stroke-linecap="round" />
<line class="mast-history-segment" data-recency="current" x1="285.3" y1="169.4" x2="272.0" y2="169.5" stroke="#0b3d91" stroke-width="1" stroke-linecap="round" />
</g>
</svg>