<svg xmlns="http://www.w3.org/2000/svg" width="980" height="680" viewBox="0 0 980 680">
<rect width="100%" height="100%" fill="#f4efe4" />
<rect x="22" y="22" width="936" height="636" rx="24" fill="#f9f6ef" stroke="#d7d1c4" stroke-width="1.5" />
<g id="grid">
<line x1="33.7" y1="600.0" x2="33.7" y2="80.0" stroke="#d9d6cf" stroke-width="1" />
<line x1="80.1" y1="600.0" x2="80.1" y2="80.0" stroke="#d9d6cf" stroke-width="1" />
<line x1="126.5" y1="600.0" x2="126.5" y2="80.0" stroke="#d9d6cf" stroke-width="1" />
<line x1="173.0" y1="600.0" x2="173.0" y2="80.0" stroke="#d9d6cf" stroke-width="1" />
<line x1="219.4" y1="600.0" x2="219.4" y2="80.0" stroke="#d9d6cf" stroke-width="1" />
<line x1="265.8" y1="600.0" x2="265.8" y2="80.0" stroke="#d9d6cf" stroke-width="1" />
<line x1="312.3" y1="600.0" x2="312.3" y2="80.0" stroke="#d9d6cf" stroke-width="1" />
<line x1="358.7" y1="600.0" x2="358.7" y2="80.0" stroke="#d9d6cf" stroke-width="1" />
<line x1="405.1" y1="600.0" x2="405.1" y2="80.0" stroke="#d9d6cf" stroke-width="1" />
<line x1="451.5" y1="600.0" x2="451.5" y2="80.0" stroke="#d9d6cf" stroke-width="1" />
<line x1="498.0" y1="600.0" x2="498.0" y2="80.0" stroke="#d9d6cf" stroke-width="1" />
<line x1="80.0" y1="644.9" x2="492.2" y2="644.9" stroke="#d9d6cf" stroke-width="1" />
<line x1="80.0" y1="598.5" x2="492.2" y2="598.5" stroke="#d9d6cf" stroke-width="1" />
<line x1="80.0" y1="552.0" x2="492.2" y2="552.0" stroke="#d9d6cf" stroke-width="1" />
<line x1="80.0" y1="505.6" x2="492.2" y2="505.6" stroke="#d9d6cf" stroke-width="1" />
<line x1="80.0" y1="459.2" x2="492.2" y2="459.2" stroke="#d9d6cf" stroke-width="1" />
<line x1="80.0" y1="412.7" x2="492.2" y2="412.7" stroke="#d9d6cf" stroke-width="1" />
<line x1="80.0" y1="366.3" x2="492.2" y2="366.3" stroke="#d9d6cf" stroke-width="1" />
<line x1="80.0" y1="319.9" x2="492.2" y2="319.9" stroke="#d9d6cf" stroke-width="1" />
<line x1="80.0" y1="273.5" x2="492.2" y2="273.5" stroke="#d9d6cf" stroke-width="1" />
<line x1="80.0" y1="227.0" x2="492.2" y2="227.0" stroke="#d9d6cf" stroke-width="1" />
<line x1="80.0" y1="180.6" x2="492.2" y2="180.6" stroke="#d9d6cf" stroke-width="1" />
<line x1="80.0" y1="134.2" x2="492.2" y2="134.2" stroke="#d9d6cf" stroke-width="1" />
<line x1="80.0" y1="87.7" x2="492.2" y2="87.7" stroke="#d9d6cf" stroke-width="1" />
<line x1="80.0" y1="41.3" x2="492.2" y2="41.3" stroke="#d9d6cf" stroke-width="1" />
</g>
<line x1="80.1" y1="600.0" x2="80.1" y2="80.0" stroke="#8c877b" stroke-width="1.8" />
<line x1="80.0" y1="319.9" x2="492.2" y2="319.9" stroke="#8c877b" stroke-width="1.8" />
<line x1="191.4" y1="191.4" x2="191.4" y2="488.6" stroke="#d4a090" stroke-width="8" stroke-linecap="round" />
<text x="191.4" y="324.0" text-anchor="middle" font-size="20" font-weight="700" fill="#8a2f22">Wall</text>
<polygon points="235.2,271.6 235.2,321.7 185.0,321.7 185.0,271.6" fill="#63f2f7" stroke="#18494e" stroke-width="3" />
<text x="210.1" y="304.7" text-anchor="middle" font-size="22" font-weight="700" fill="#0d2b32">?</text>
<text x="210.1" y="338.7" text-anchor="middle" font-size="18" font-weight="700" fill="#18494e">Brick Supply</text>
<polygon points="405.6,192.6 348.1,225.8 369.5,232.6 378.5,253.2" fill="#f0a43e" stroke="#233843" stroke-width="3.5" />
<circle cx="380.7" cy="220.2" r="3.5" fill="#233843" />
<circle cx="380.7" cy="220.2" r="6.5" fill="#2c6fbb" stroke="#0d2b32" stroke-width="1.5" />
<text x="392.7" y="208.2" font-size="18" font-weight="700" fill="#1f4d80">Leia</text>
<rect x="655" y="64" width="270" height="250" rx="18" fill="rgba(255,255,255,0.88)" stroke="#d7d1c4" stroke-width="1.5" />
<text x="673" y="92" font-size="22" font-weight="700" fill="#10202b">Workspace</text>
<text x="673" y="122" font-size="15" fill="#10202b">Robot: x=323.7 y=107.4 theta=47.9</text>
<text x="673" y="146" font-size="15" fill="#10202b">Leia z=3.7mm</text>
<text x="673" y="170" font-size="15" fill="#10202b">Brick Supply count=?</text>
<text x="673" y="194" font-size="15" fill="#10202b">Held Brick=NO</text>
<text x="673" y="218" font-size="15" fill="#10202b">Wall behind=232.4mm</text>
<text x="673" y="250" font-size="15" font-weight="700" fill="#8a2f22">Wall Plan</text>
<text x="673" y="274" font-size="15" fill="#10202b">reverse acts=7 then L</text>
<text x="673" y="298" font-size="13" fill="#55626b">Auto-refresh HTML rewrites from motion/vision syncs.</text>
<text x="60" y="48" font-size="26" font-weight="700" fill="#10202b">Leia Workspace XYZ</text>
<text x="60" y="72" font-size="14" fill="#55626b">Top-down mm map. +X points right, +Y points up. Z is shown in labels.</text>
</svg>