<svg xmlns="http://www.w3.org/2000/svg" width="980" height="680" viewBox="0 0 980 680">
<rect width="100%" height="100%" fill="#f4efe4" />
<rect x="22" y="22" width="936" height="636" rx="24" fill="#f9f6ef" stroke="#d7d1c4" stroke-width="1.5" />
<g id="grid">
<line x1="64.4" y1="600.0" x2="64.4" y2="80.0" stroke="#d9d6cf" stroke-width="1" />
<line x1="110.9" y1="600.0" x2="110.9" y2="80.0" stroke="#d9d6cf" stroke-width="1" />
<line x1="157.3" y1="600.0" x2="157.3" y2="80.0" stroke="#d9d6cf" stroke-width="1" />
<line x1="203.7" y1="600.0" x2="203.7" y2="80.0" stroke="#d9d6cf" stroke-width="1" />
<line x1="250.1" y1="600.0" x2="250.1" y2="80.0" stroke="#d9d6cf" stroke-width="1" />
<line x1="296.6" y1="600.0" x2="296.6" y2="80.0" stroke="#d9d6cf" stroke-width="1" />
<line x1="343.0" y1="600.0" x2="343.0" y2="80.0" stroke="#d9d6cf" stroke-width="1" />
<line x1="389.4" y1="600.0" x2="389.4" y2="80.0" stroke="#d9d6cf" stroke-width="1" />
<line x1="435.9" y1="600.0" x2="435.9" y2="80.0" stroke="#d9d6cf" stroke-width="1" />
<line x1="80.0" y1="640.1" x2="398.7" y2="640.1" stroke="#d9d6cf" stroke-width="1" />
<line x1="80.0" y1="593.7" x2="398.7" y2="593.7" stroke="#d9d6cf" stroke-width="1" />
<line x1="80.0" y1="547.2" x2="398.7" y2="547.2" stroke="#d9d6cf" stroke-width="1" />
<line x1="80.0" y1="500.8" x2="398.7" y2="500.8" stroke="#d9d6cf" stroke-width="1" />
<line x1="80.0" y1="454.4" x2="398.7" y2="454.4" stroke="#d9d6cf" stroke-width="1" />
<line x1="80.0" y1="408.0" x2="398.7" y2="408.0" stroke="#d9d6cf" stroke-width="1" />
<line x1="80.0" y1="361.5" x2="398.7" y2="361.5" stroke="#d9d6cf" stroke-width="1" />
<line x1="80.0" y1="315.1" x2="398.7" y2="315.1" stroke="#d9d6cf" stroke-width="1" />
<line x1="80.0" y1="268.7" x2="398.7" y2="268.7" stroke="#d9d6cf" stroke-width="1" />
<line x1="80.0" y1="222.2" x2="398.7" y2="222.2" stroke="#d9d6cf" stroke-width="1" />
<line x1="80.0" y1="175.8" x2="398.7" y2="175.8" stroke="#d9d6cf" stroke-width="1" />
<line x1="80.0" y1="129.4" x2="398.7" y2="129.4" stroke="#d9d6cf" stroke-width="1" />
<line x1="80.0" y1="83.0" x2="398.7" y2="83.0" stroke="#d9d6cf" stroke-width="1" />
<line x1="80.0" y1="36.5" x2="398.7" y2="36.5" stroke="#d9d6cf" stroke-width="1" />
</g>
<line x1="157.3" y1="600.0" x2="157.3" y2="80.0" stroke="#8c877b" stroke-width="1.8" />
<line x1="80.0" y1="315.1" x2="398.7" y2="315.1" stroke="#8c877b" stroke-width="1.8" />
<line x1="270.7" y1="191.4" x2="270.7" y2="488.6" stroke="#c2523c" stroke-width="8" stroke-linecap="round" />
<text x="270.7" y="324.0" text-anchor="middle" font-size="20" font-weight="700" fill="#8a2f22">Wall</text>
<polygon points="312.4,266.8 312.4,317.0 262.2,317.0 262.2,266.8" fill="#63f2f7" stroke="#18494e" stroke-width="3" />
<text x="287.3" y="299.9" text-anchor="middle" font-size="22" font-weight="700" fill="#0d2b32">?</text>
<text x="287.3" y="333.9" text-anchor="middle" font-size="18" font-weight="700" fill="#18494e">Brick Supply</text>
<polygon points="228.5,317.3 166.2,294.6 174.7,315.4 164.7,335.4" fill="#f0a43e" stroke="#233843" stroke-width="3.5" />
<circle cx="191.4" cy="316.0" r="3.5" fill="#233843" />
<circle cx="191.4" cy="316.0" r="6.5" fill="#2c6fbb" stroke="#0d2b32" stroke-width="1.5" />
<text x="203.4" y="304.0" font-size="18" font-weight="700" fill="#1f4d80">Leia</text>
<rect x="655" y="64" width="270" height="250" rx="18" fill="rgba(255,255,255,0.88)" stroke="#d7d1c4" stroke-width="1.5" />
<text x="673" y="92" font-size="22" font-weight="700" fill="#10202b">Workspace</text>
<text x="673" y="122" font-size="15" fill="#10202b">Robot: x=36.8 y=-0.9 theta=-2.1</text>
<text x="673" y="146" font-size="15" fill="#10202b">Leia z=0.2mm</text>
<text x="673" y="170" font-size="15" fill="#10202b">Brick Supply count=?</text>
<text x="673" y="194" font-size="15" fill="#10202b">Held Brick=NO</text>
<text x="673" y="218" font-size="15" fill="#10202b">Wall behind=0.0mm</text>
<text x="673" y="250" font-size="15" font-weight="700" fill="#8a2f22">Wall Plan</text>
<text x="673" y="274" font-size="15" fill="#10202b">reverse acts=0 then L</text>
<text x="673" y="298" font-size="13" fill="#55626b">Auto-refresh HTML rewrites from motion/vision syncs.</text>
<text x="60" y="48" font-size="26" font-weight="700" fill="#10202b">Leia Workspace XYZ</text>
<text x="60" y="72" font-size="14" fill="#55626b">Top-down mm map. +X points right, +Y points up. Z is shown in labels.</text>
</svg>